<?xml version="1.0" encoding="utf-8" standalone="no"?>
<!DOCTYPE svg PUBLIC "-//W3C//DTD SVG 1.1//EN"
  "http://www.w3.org/Graphics/SVG/1.1/DTD/svg11.dtd">
<!-- Created with matplotlib (https://matplotlib.org/) -->
<svg height="360pt" version="1.1" viewBox="0 0 576 360" width="576pt" xmlns="http://www.w3.org/2000/svg" xmlns:xlink="http://www.w3.org/1999/xlink">
 <defs>
  <style type="text/css">
*{stroke-linecap:butt;stroke-linejoin:round;}
  </style>
 </defs>
 <g id="figure_1">
  <g id="patch_1">
   <path d="M 0 360 
L 576 360 
L 576 0 
L 0 0 
z
" style="fill:#ffffff;"/>
  </g>
  <g id="axes_1">
   <g id="patch_2">
    <path d="M 72 320.4 
L 518.4 320.4 
L 518.4 43.2 
L 72 43.2 
z
" style="fill:#ffffff;"/>
   </g>
   <g id="matplotlib.axis_1">
    <g id="xtick_1">
     <g id="line2d_1">
      <path clip-path="url(#pcbce21f9d6)" d="M 72 320.4 
L 72 43.2 
" style="fill:none;stroke:#808080;stroke-linecap:square;stroke-opacity:0.6;stroke-width:0.5;"/>
     </g>
     <g id="line2d_2">
      <defs>
       <path d="M 0 0 
L 0 -3.5 
" id="ma2d0d3493c" style="stroke:#000000;stroke-width:0.8;"/>
      </defs>
      <g>
       <use style="stroke:#000000;stroke-width:0.8;" x="72" xlink:href="#ma2d0d3493c" y="320.4"/>
      </g>
     </g>
     <g id="text_1">
      <!-- 20 -->
      <defs>
       <path d="M 19.1875 8.296875 
L 53.609375 8.296875 
L 53.609375 0 
L 7.328125 0 
L 7.328125 8.296875 
Q 12.9375 14.109375 22.625 23.890625 
Q 32.328125 33.6875 34.8125 36.53125 
Q 39.546875 41.84375 41.421875 45.53125 
Q 43.3125 49.21875 43.3125 52.78125 
Q 43.3125 58.59375 39.234375 62.25 
Q 35.15625 65.921875 28.609375 65.921875 
Q 23.96875 65.921875 18.8125 64.3125 
Q 13.671875 62.703125 7.8125 59.421875 
L 7.8125 69.390625 
Q 13.765625 71.78125 18.9375 73 
Q 24.125 74.21875 28.421875 74.21875 
Q 39.75 74.21875 46.484375 68.546875 
Q 53.21875 62.890625 53.21875 53.421875 
Q 53.21875 48.921875 51.53125 44.890625 
Q 49.859375 40.875 45.40625 35.40625 
Q 44.1875 33.984375 37.640625 27.21875 
Q 31.109375 20.453125 19.1875 8.296875 
z
" id="DejaVuSans-50"/>
       <path d="M 31.78125 66.40625 
Q 24.171875 66.40625 20.328125 58.90625 
Q 16.5 51.421875 16.5 36.375 
Q 16.5 21.390625 20.328125 13.890625 
Q 24.171875 6.390625 31.78125 6.390625 
Q 39.453125 6.390625 43.28125 13.890625 
Q 47.125 21.390625 47.125 36.375 
Q 47.125 51.421875 43.28125 58.90625 
Q 39.453125 66.40625 31.78125 66.40625 
z
M 31.78125 74.21875 
Q 44.046875 74.21875 50.515625 64.515625 
Q 56.984375 54.828125 56.984375 36.375 
Q 56.984375 17.96875 50.515625 8.265625 
Q 44.046875 -1.421875 31.78125 -1.421875 
Q 19.53125 -1.421875 13.0625 8.265625 
Q 6.59375 17.96875 6.59375 36.375 
Q 6.59375 54.828125 13.0625 64.515625 
Q 19.53125 74.21875 31.78125 74.21875 
z
" id="DejaVuSans-48"/>
      </defs>
      <g transform="translate(65.6375 331.498438)scale(0.1 -0.1)">
       <use xlink:href="#DejaVuSans-50"/>
       <use x="63.623047" xlink:href="#DejaVuSans-48"/>
      </g>
     </g>
    </g>
    <g id="xtick_2">
     <g id="line2d_3">
      <path clip-path="url(#pcbce21f9d6)" d="M 131.213473 320.4 
L 131.213473 43.2 
" style="fill:none;stroke:#808080;stroke-linecap:square;stroke-opacity:0.6;stroke-width:0.5;"/>
     </g>
     <g id="line2d_4">
      <g>
       <use style="stroke:#000000;stroke-width:0.8;" x="131.213473" xlink:href="#ma2d0d3493c" y="320.4"/>
      </g>
     </g>
     <g id="text_2">
      <!-- 50 -->
      <defs>
       <path d="M 10.796875 72.90625 
L 49.515625 72.90625 
L 49.515625 64.59375 
L 19.828125 64.59375 
L 19.828125 46.734375 
Q 21.96875 47.46875 24.109375 47.828125 
Q 26.265625 48.1875 28.421875 48.1875 
Q 40.625 48.1875 47.75 41.5 
Q 54.890625 34.8125 54.890625 23.390625 
Q 54.890625 11.625 47.5625 5.09375 
Q 40.234375 -1.421875 26.90625 -1.421875 
Q 22.3125 -1.421875 17.546875 -0.640625 
Q 12.796875 0.140625 7.71875 1.703125 
L 7.71875 11.625 
Q 12.109375 9.234375 16.796875 8.0625 
Q 21.484375 6.890625 26.703125 6.890625 
Q 35.15625 6.890625 40.078125 11.328125 
Q 45.015625 15.765625 45.015625 23.390625 
Q 45.015625 31 40.078125 35.4375 
Q 35.15625 39.890625 26.703125 39.890625 
Q 22.75 39.890625 18.8125 39.015625 
Q 14.890625 38.140625 10.796875 36.28125 
z
" id="DejaVuSans-53"/>
      </defs>
      <g transform="translate(124.850973 331.498438)scale(0.1 -0.1)">
       <use xlink:href="#DejaVuSans-53"/>
       <use x="63.623047" xlink:href="#DejaVuSans-48"/>
      </g>
     </g>
    </g>
    <g id="xtick_3">
     <g id="line2d_5">
      <path clip-path="url(#pcbce21f9d6)" d="M 176.006737 320.4 
L 176.006737 43.2 
" style="fill:none;stroke:#808080;stroke-linecap:square;stroke-opacity:0.6;stroke-width:0.5;"/>
     </g>
     <g id="line2d_6">
      <g>
       <use style="stroke:#000000;stroke-width:0.8;" x="176.006737" xlink:href="#ma2d0d3493c" y="320.4"/>
      </g>
     </g>
     <g id="text_3">
      <!-- 100 -->
      <defs>
       <path d="M 12.40625 8.296875 
L 28.515625 8.296875 
L 28.515625 63.921875 
L 10.984375 60.40625 
L 10.984375 69.390625 
L 28.421875 72.90625 
L 38.28125 72.90625 
L 38.28125 8.296875 
L 54.390625 8.296875 
L 54.390625 0 
L 12.40625 0 
z
" id="DejaVuSans-49"/>
      </defs>
      <g transform="translate(166.462987 331.498438)scale(0.1 -0.1)">
       <use xlink:href="#DejaVuSans-49"/>
       <use x="63.623047" xlink:href="#DejaVuSans-48"/>
       <use x="127.246094" xlink:href="#DejaVuSans-48"/>
      </g>
     </g>
    </g>
    <g id="xtick_4">
     <g id="line2d_7">
      <path clip-path="url(#pcbce21f9d6)" d="M 220.8 320.4 
L 220.8 43.2 
" style="fill:none;stroke:#808080;stroke-linecap:square;stroke-opacity:0.6;stroke-width:0.5;"/>
     </g>
     <g id="line2d_8">
      <g>
       <use style="stroke:#000000;stroke-width:0.8;" x="220.8" xlink:href="#ma2d0d3493c" y="320.4"/>
      </g>
     </g>
     <g id="text_4">
      <!-- 200 -->
      <g transform="translate(211.25625 331.498438)scale(0.1 -0.1)">
       <use xlink:href="#DejaVuSans-50"/>
       <use x="63.623047" xlink:href="#DejaVuSans-48"/>
       <use x="127.246094" xlink:href="#DejaVuSans-48"/>
      </g>
     </g>
    </g>
    <g id="xtick_5">
     <g id="line2d_9">
      <path clip-path="url(#pcbce21f9d6)" d="M 280.013473 320.4 
L 280.013473 43.2 
" style="fill:none;stroke:#808080;stroke-linecap:square;stroke-opacity:0.6;stroke-width:0.5;"/>
     </g>
     <g id="line2d_10">
      <g>
       <use style="stroke:#000000;stroke-width:0.8;" x="280.013473" xlink:href="#ma2d0d3493c" y="320.4"/>
      </g>
     </g>
     <g id="text_5">
      <!-- 500 -->
      <g transform="translate(270.469723 331.498438)scale(0.1 -0.1)">
       <use xlink:href="#DejaVuSans-53"/>
       <use x="63.623047" xlink:href="#DejaVuSans-48"/>
       <use x="127.246094" xlink:href="#DejaVuSans-48"/>
      </g>
     </g>
    </g>
    <g id="xtick_6">
     <g id="line2d_11">
      <path clip-path="url(#pcbce21f9d6)" d="M 324.806737 320.4 
L 324.806737 43.2 
" style="fill:none;stroke:#808080;stroke-linecap:square;stroke-opacity:0.6;stroke-width:0.5;"/>
     </g>
     <g id="line2d_12">
      <g>
       <use style="stroke:#000000;stroke-width:0.8;" x="324.806737" xlink:href="#ma2d0d3493c" y="320.4"/>
      </g>
     </g>
     <g id="text_6">
      <!-- 1k -->
      <defs>
       <path d="M 9.078125 75.984375 
L 18.109375 75.984375 
L 18.109375 31.109375 
L 44.921875 54.6875 
L 56.390625 54.6875 
L 27.390625 29.109375 
L 57.625 0 
L 45.90625 0 
L 18.109375 26.703125 
L 18.109375 0 
L 9.078125 0 
z
" id="DejaVuSans-107"/>
      </defs>
      <g transform="translate(318.730174 331.498438)scale(0.1 -0.1)">
       <use xlink:href="#DejaVuSans-49"/>
       <use x="63.623047" xlink:href="#DejaVuSans-107"/>
      </g>
     </g>
    </g>
    <g id="xtick_7">
     <g id="line2d_13">
      <path clip-path="url(#pcbce21f9d6)" d="M 369.6 320.4 
L 369.6 43.2 
" style="fill:none;stroke:#808080;stroke-linecap:square;stroke-opacity:0.6;stroke-width:0.5;"/>
     </g>
     <g id="line2d_14">
      <g>
       <use style="stroke:#000000;stroke-width:0.8;" x="369.6" xlink:href="#ma2d0d3493c" y="320.4"/>
      </g>
     </g>
     <g id="text_7">
      <!-- 2k -->
      <g transform="translate(363.523438 331.498438)scale(0.1 -0.1)">
       <use xlink:href="#DejaVuSans-50"/>
       <use x="63.623047" xlink:href="#DejaVuSans-107"/>
      </g>
     </g>
    </g>
    <g id="xtick_8">
     <g id="line2d_15">
      <path clip-path="url(#pcbce21f9d6)" d="M 428.813473 320.4 
L 428.813473 43.2 
" style="fill:none;stroke:#808080;stroke-linecap:square;stroke-opacity:0.6;stroke-width:0.5;"/>
     </g>
     <g id="line2d_16">
      <g>
       <use style="stroke:#000000;stroke-width:0.8;" x="428.813473" xlink:href="#ma2d0d3493c" y="320.4"/>
      </g>
     </g>
     <g id="text_8">
      <!-- 5k -->
      <g transform="translate(422.736911 331.498438)scale(0.1 -0.1)">
       <use xlink:href="#DejaVuSans-53"/>
       <use x="63.623047" xlink:href="#DejaVuSans-107"/>
      </g>
     </g>
    </g>
    <g id="xtick_9">
     <g id="line2d_17">
      <path clip-path="url(#pcbce21f9d6)" d="M 473.606737 320.4 
L 473.606737 43.2 
" style="fill:none;stroke:#808080;stroke-linecap:square;stroke-opacity:0.6;stroke-width:0.5;"/>
     </g>
     <g id="line2d_18">
      <g>
       <use style="stroke:#000000;stroke-width:0.8;" x="473.606737" xlink:href="#ma2d0d3493c" y="320.4"/>
      </g>
     </g>
     <g id="text_9">
      <!-- 10k -->
      <g transform="translate(464.348924 331.498438)scale(0.1 -0.1)">
       <use xlink:href="#DejaVuSans-49"/>
       <use x="63.623047" xlink:href="#DejaVuSans-48"/>
       <use x="127.246094" xlink:href="#DejaVuSans-107"/>
      </g>
     </g>
    </g>
    <g id="xtick_10">
     <g id="line2d_19">
      <path clip-path="url(#pcbce21f9d6)" d="M 518.4 320.4 
L 518.4 43.2 
" style="fill:none;stroke:#808080;stroke-linecap:square;stroke-opacity:0.6;stroke-width:0.5;"/>
     </g>
     <g id="line2d_20">
      <g>
       <use style="stroke:#000000;stroke-width:0.8;" x="518.4" xlink:href="#ma2d0d3493c" y="320.4"/>
      </g>
     </g>
     <g id="text_10">
      <!-- 20k -->
      <g transform="translate(509.142187 331.498438)scale(0.1 -0.1)">
       <use xlink:href="#DejaVuSans-50"/>
       <use x="63.623047" xlink:href="#DejaVuSans-48"/>
       <use x="127.246094" xlink:href="#DejaVuSans-107"/>
      </g>
     </g>
    </g>
    <g id="xtick_11">
     <g id="line2d_21">
      <path clip-path="url(#pcbce21f9d6)" d="M 72 320.4 
L 72 43.2 
" style="fill:none;stroke:#b0b0b0;stroke-dasharray:0.8,1.32;stroke-dashoffset:0;stroke-opacity:0.4;stroke-width:0.8;"/>
     </g>
     <g id="line2d_22">
      <defs>
       <path d="M 0 0 
L 0 -2 
" id="m1bb804dd92" style="stroke:#000000;stroke-width:0.6;"/>
      </defs>
      <g>
       <use style="stroke:#000000;stroke-width:0.6;" x="72" xlink:href="#m1bb804dd92" y="320.4"/>
      </g>
     </g>
    </g>
    <g id="xtick_12">
     <g id="line2d_23">
      <path clip-path="url(#pcbce21f9d6)" d="M 98.202379 320.4 
L 98.202379 43.2 
" style="fill:none;stroke:#b0b0b0;stroke-dasharray:0.8,1.32;stroke-dashoffset:0;stroke-opacity:0.4;stroke-width:0.8;"/>
     </g>
     <g id="line2d_24">
      <g>
       <use style="stroke:#000000;stroke-width:0.6;" x="98.202379" xlink:href="#m1bb804dd92" y="320.4"/>
      </g>
     </g>
    </g>
    <g id="xtick_13">
     <g id="line2d_25">
      <path clip-path="url(#pcbce21f9d6)" d="M 116.793263 320.4 
L 116.793263 43.2 
" style="fill:none;stroke:#b0b0b0;stroke-dasharray:0.8,1.32;stroke-dashoffset:0;stroke-opacity:0.4;stroke-width:0.8;"/>
     </g>
     <g id="line2d_26">
      <g>
       <use style="stroke:#000000;stroke-width:0.6;" x="116.793263" xlink:href="#m1bb804dd92" y="320.4"/>
      </g>
     </g>
    </g>
    <g id="xtick_14">
     <g id="line2d_27">
      <path clip-path="url(#pcbce21f9d6)" d="M 131.213473 320.4 
L 131.213473 43.2 
" style="fill:none;stroke:#b0b0b0;stroke-dasharray:0.8,1.32;stroke-dashoffset:0;stroke-opacity:0.4;stroke-width:0.8;"/>
     </g>
     <g id="line2d_28">
      <g>
       <use style="stroke:#000000;stroke-width:0.6;" x="131.213473" xlink:href="#m1bb804dd92" y="320.4"/>
      </g>
     </g>
    </g>
    <g id="xtick_15">
     <g id="line2d_29">
      <path clip-path="url(#pcbce21f9d6)" d="M 142.995643 320.4 
L 142.995643 43.2 
" style="fill:none;stroke:#b0b0b0;stroke-dasharray:0.8,1.32;stroke-dashoffset:0;stroke-opacity:0.4;stroke-width:0.8;"/>
     </g>
     <g id="line2d_30">
      <g>
       <use style="stroke:#000000;stroke-width:0.6;" x="142.995643" xlink:href="#m1bb804dd92" y="320.4"/>
      </g>
     </g>
    </g>
    <g id="xtick_16">
     <g id="line2d_31">
      <path clip-path="url(#pcbce21f9d6)" d="M 152.957325 320.4 
L 152.957325 43.2 
" style="fill:none;stroke:#b0b0b0;stroke-dasharray:0.8,1.32;stroke-dashoffset:0;stroke-opacity:0.4;stroke-width:0.8;"/>
     </g>
     <g id="line2d_32">
      <g>
       <use style="stroke:#000000;stroke-width:0.6;" x="152.957325" xlink:href="#m1bb804dd92" y="320.4"/>
      </g>
     </g>
    </g>
    <g id="xtick_17">
     <g id="line2d_33">
      <path clip-path="url(#pcbce21f9d6)" d="M 161.586527 320.4 
L 161.586527 43.2 
" style="fill:none;stroke:#b0b0b0;stroke-dasharray:0.8,1.32;stroke-dashoffset:0;stroke-opacity:0.4;stroke-width:0.8;"/>
     </g>
     <g id="line2d_34">
      <g>
       <use style="stroke:#000000;stroke-width:0.6;" x="161.586527" xlink:href="#m1bb804dd92" y="320.4"/>
      </g>
     </g>
    </g>
    <g id="xtick_18">
     <g id="line2d_35">
      <path clip-path="url(#pcbce21f9d6)" d="M 169.198022 320.4 
L 169.198022 43.2 
" style="fill:none;stroke:#b0b0b0;stroke-dasharray:0.8,1.32;stroke-dashoffset:0;stroke-opacity:0.4;stroke-width:0.8;"/>
     </g>
     <g id="line2d_36">
      <g>
       <use style="stroke:#000000;stroke-width:0.6;" x="169.198022" xlink:href="#m1bb804dd92" y="320.4"/>
      </g>
     </g>
    </g>
    <g id="xtick_19">
     <g id="line2d_37">
      <path clip-path="url(#pcbce21f9d6)" d="M 220.8 320.4 
L 220.8 43.2 
" style="fill:none;stroke:#b0b0b0;stroke-dasharray:0.8,1.32;stroke-dashoffset:0;stroke-opacity:0.4;stroke-width:0.8;"/>
     </g>
     <g id="line2d_38">
      <g>
       <use style="stroke:#000000;stroke-width:0.6;" x="220.8" xlink:href="#m1bb804dd92" y="320.4"/>
      </g>
     </g>
    </g>
    <g id="xtick_20">
     <g id="line2d_39">
      <path clip-path="url(#pcbce21f9d6)" d="M 247.002379 320.4 
L 247.002379 43.2 
" style="fill:none;stroke:#b0b0b0;stroke-dasharray:0.8,1.32;stroke-dashoffset:0;stroke-opacity:0.4;stroke-width:0.8;"/>
     </g>
     <g id="line2d_40">
      <g>
       <use style="stroke:#000000;stroke-width:0.6;" x="247.002379" xlink:href="#m1bb804dd92" y="320.4"/>
      </g>
     </g>
    </g>
    <g id="xtick_21">
     <g id="line2d_41">
      <path clip-path="url(#pcbce21f9d6)" d="M 265.593263 320.4 
L 265.593263 43.2 
" style="fill:none;stroke:#b0b0b0;stroke-dasharray:0.8,1.32;stroke-dashoffset:0;stroke-opacity:0.4;stroke-width:0.8;"/>
     </g>
     <g id="line2d_42">
      <g>
       <use style="stroke:#000000;stroke-width:0.6;" x="265.593263" xlink:href="#m1bb804dd92" y="320.4"/>
      </g>
     </g>
    </g>
    <g id="xtick_22">
     <g id="line2d_43">
      <path clip-path="url(#pcbce21f9d6)" d="M 280.013473 320.4 
L 280.013473 43.2 
" style="fill:none;stroke:#b0b0b0;stroke-dasharray:0.8,1.32;stroke-dashoffset:0;stroke-opacity:0.4;stroke-width:0.8;"/>
     </g>
     <g id="line2d_44">
      <g>
       <use style="stroke:#000000;stroke-width:0.6;" x="280.013473" xlink:href="#m1bb804dd92" y="320.4"/>
      </g>
     </g>
    </g>
    <g id="xtick_23">
     <g id="line2d_45">
      <path clip-path="url(#pcbce21f9d6)" d="M 291.795643 320.4 
L 291.795643 43.2 
" style="fill:none;stroke:#b0b0b0;stroke-dasharray:0.8,1.32;stroke-dashoffset:0;stroke-opacity:0.4;stroke-width:0.8;"/>
     </g>
     <g id="line2d_46">
      <g>
       <use style="stroke:#000000;stroke-width:0.6;" x="291.795643" xlink:href="#m1bb804dd92" y="320.4"/>
      </g>
     </g>
    </g>
    <g id="xtick_24">
     <g id="line2d_47">
      <path clip-path="url(#pcbce21f9d6)" d="M 301.757325 320.4 
L 301.757325 43.2 
" style="fill:none;stroke:#b0b0b0;stroke-dasharray:0.8,1.32;stroke-dashoffset:0;stroke-opacity:0.4;stroke-width:0.8;"/>
     </g>
     <g id="line2d_48">
      <g>
       <use style="stroke:#000000;stroke-width:0.6;" x="301.757325" xlink:href="#m1bb804dd92" y="320.4"/>
      </g>
     </g>
    </g>
    <g id="xtick_25">
     <g id="line2d_49">
      <path clip-path="url(#pcbce21f9d6)" d="M 310.386527 320.4 
L 310.386527 43.2 
" style="fill:none;stroke:#b0b0b0;stroke-dasharray:0.8,1.32;stroke-dashoffset:0;stroke-opacity:0.4;stroke-width:0.8;"/>
     </g>
     <g id="line2d_50">
      <g>
       <use style="stroke:#000000;stroke-width:0.6;" x="310.386527" xlink:href="#m1bb804dd92" y="320.4"/>
      </g>
     </g>
    </g>
    <g id="xtick_26">
     <g id="line2d_51">
      <path clip-path="url(#pcbce21f9d6)" d="M 317.998022 320.4 
L 317.998022 43.2 
" style="fill:none;stroke:#b0b0b0;stroke-dasharray:0.8,1.32;stroke-dashoffset:0;stroke-opacity:0.4;stroke-width:0.8;"/>
     </g>
     <g id="line2d_52">
      <g>
       <use style="stroke:#000000;stroke-width:0.6;" x="317.998022" xlink:href="#m1bb804dd92" y="320.4"/>
      </g>
     </g>
    </g>
    <g id="xtick_27">
     <g id="line2d_53">
      <path clip-path="url(#pcbce21f9d6)" d="M 369.6 320.4 
L 369.6 43.2 
" style="fill:none;stroke:#b0b0b0;stroke-dasharray:0.8,1.32;stroke-dashoffset:0;stroke-opacity:0.4;stroke-width:0.8;"/>
     </g>
     <g id="line2d_54">
      <g>
       <use style="stroke:#000000;stroke-width:0.6;" x="369.6" xlink:href="#m1bb804dd92" y="320.4"/>
      </g>
     </g>
    </g>
    <g id="xtick_28">
     <g id="line2d_55">
      <path clip-path="url(#pcbce21f9d6)" d="M 395.802379 320.4 
L 395.802379 43.2 
" style="fill:none;stroke:#b0b0b0;stroke-dasharray:0.8,1.32;stroke-dashoffset:0;stroke-opacity:0.4;stroke-width:0.8;"/>
     </g>
     <g id="line2d_56">
      <g>
       <use style="stroke:#000000;stroke-width:0.6;" x="395.802379" xlink:href="#m1bb804dd92" y="320.4"/>
      </g>
     </g>
    </g>
    <g id="xtick_29">
     <g id="line2d_57">
      <path clip-path="url(#pcbce21f9d6)" d="M 414.393263 320.4 
L 414.393263 43.2 
" style="fill:none;stroke:#b0b0b0;stroke-dasharray:0.8,1.32;stroke-dashoffset:0;stroke-opacity:0.4;stroke-width:0.8;"/>
     </g>
     <g id="line2d_58">
      <g>
       <use style="stroke:#000000;stroke-width:0.6;" x="414.393263" xlink:href="#m1bb804dd92" y="320.4"/>
      </g>
     </g>
    </g>
    <g id="xtick_30">
     <g id="line2d_59">
      <path clip-path="url(#pcbce21f9d6)" d="M 428.813473 320.4 
L 428.813473 43.2 
" style="fill:none;stroke:#b0b0b0;stroke-dasharray:0.8,1.32;stroke-dashoffset:0;stroke-opacity:0.4;stroke-width:0.8;"/>
     </g>
     <g id="line2d_60">
      <g>
       <use style="stroke:#000000;stroke-width:0.6;" x="428.813473" xlink:href="#m1bb804dd92" y="320.4"/>
      </g>
     </g>
    </g>
    <g id="xtick_31">
     <g id="line2d_61">
      <path clip-path="url(#pcbce21f9d6)" d="M 440.595643 320.4 
L 440.595643 43.2 
" style="fill:none;stroke:#b0b0b0;stroke-dasharray:0.8,1.32;stroke-dashoffset:0;stroke-opacity:0.4;stroke-width:0.8;"/>
     </g>
     <g id="line2d_62">
      <g>
       <use style="stroke:#000000;stroke-width:0.6;" x="440.595643" xlink:href="#m1bb804dd92" y="320.4"/>
      </g>
     </g>
    </g>
    <g id="xtick_32">
     <g id="line2d_63">
      <path clip-path="url(#pcbce21f9d6)" d="M 450.557325 320.4 
L 450.557325 43.2 
" style="fill:none;stroke:#b0b0b0;stroke-dasharray:0.8,1.32;stroke-dashoffset:0;stroke-opacity:0.4;stroke-width:0.8;"/>
     </g>
     <g id="line2d_64">
      <g>
       <use style="stroke:#000000;stroke-width:0.6;" x="450.557325" xlink:href="#m1bb804dd92" y="320.4"/>
      </g>
     </g>
    </g>
    <g id="xtick_33">
     <g id="line2d_65">
      <path clip-path="url(#pcbce21f9d6)" d="M 459.186527 320.4 
L 459.186527 43.2 
" style="fill:none;stroke:#b0b0b0;stroke-dasharray:0.8,1.32;stroke-dashoffset:0;stroke-opacity:0.4;stroke-width:0.8;"/>
     </g>
     <g id="line2d_66">
      <g>
       <use style="stroke:#000000;stroke-width:0.6;" x="459.186527" xlink:href="#m1bb804dd92" y="320.4"/>
      </g>
     </g>
    </g>
    <g id="xtick_34">
     <g id="line2d_67">
      <path clip-path="url(#pcbce21f9d6)" d="M 466.798022 320.4 
L 466.798022 43.2 
" style="fill:none;stroke:#b0b0b0;stroke-dasharray:0.8,1.32;stroke-dashoffset:0;stroke-opacity:0.4;stroke-width:0.8;"/>
     </g>
     <g id="line2d_68">
      <g>
       <use style="stroke:#000000;stroke-width:0.6;" x="466.798022" xlink:href="#m1bb804dd92" y="320.4"/>
      </g>
     </g>
    </g>
    <g id="xtick_35">
     <g id="line2d_69">
      <path clip-path="url(#pcbce21f9d6)" d="M 518.4 320.4 
L 518.4 43.2 
" style="fill:none;stroke:#b0b0b0;stroke-dasharray:0.8,1.32;stroke-dashoffset:0;stroke-opacity:0.4;stroke-width:0.8;"/>
     </g>
     <g id="line2d_70">
      <g>
       <use style="stroke:#000000;stroke-width:0.6;" x="518.4" xlink:href="#m1bb804dd92" y="320.4"/>
      </g>
     </g>
    </g>
    <g id="text_11">
     <!-- Frequenz f [Hz] -->
     <defs>
      <path d="M 9.1875 72.90625 
L 59.90625 72.90625 
L 59.90625 58.6875 
L 27.984375 58.6875 
L 27.984375 45.125 
L 58.015625 45.125 
L 58.015625 30.90625 
L 27.984375 30.90625 
L 27.984375 0 
L 9.1875 0 
z
" id="DejaVuSans-Bold-70"/>
      <path d="M 49.03125 39.796875 
Q 46.734375 40.875 44.453125 41.375 
Q 42.1875 41.890625 39.890625 41.890625 
Q 33.15625 41.890625 29.515625 37.5625 
Q 25.875 33.25 25.875 25.203125 
L 25.875 0 
L 8.40625 0 
L 8.40625 54.6875 
L 25.875 54.6875 
L 25.875 45.703125 
Q 29.25 51.078125 33.609375 53.53125 
Q 37.984375 56 44.09375 56 
Q 44.96875 56 45.984375 55.921875 
Q 47.015625 55.859375 48.96875 55.609375 
z
" id="DejaVuSans-Bold-114"/>
      <path d="M 62.984375 27.484375 
L 62.984375 22.515625 
L 22.125 22.515625 
Q 22.75 16.359375 26.5625 13.28125 
Q 30.375 10.203125 37.203125 10.203125 
Q 42.71875 10.203125 48.5 11.84375 
Q 54.296875 13.484375 60.40625 16.796875 
L 60.40625 3.328125 
Q 54.203125 0.984375 48 -0.21875 
Q 41.796875 -1.421875 35.59375 -1.421875 
Q 20.75 -1.421875 12.515625 6.125 
Q 4.296875 13.671875 4.296875 27.296875 
Q 4.296875 40.671875 12.375 48.328125 
Q 20.453125 56 34.625 56 
Q 47.515625 56 55.25 48.234375 
Q 62.984375 40.484375 62.984375 27.484375 
z
M 45.015625 33.296875 
Q 45.015625 38.28125 42.109375 41.328125 
Q 39.203125 44.390625 34.515625 44.390625 
Q 29.4375 44.390625 26.265625 41.53125 
Q 23.09375 38.671875 22.3125 33.296875 
z
" id="DejaVuSans-Bold-101"/>
      <path d="M 34.078125 43.3125 
Q 28.515625 43.3125 25.5625 39.203125 
Q 22.609375 35.109375 22.609375 27.296875 
Q 22.609375 19.484375 25.5625 15.375 
Q 28.515625 11.28125 34.078125 11.28125 
Q 39.703125 11.28125 42.65625 15.375 
Q 45.609375 19.484375 45.609375 27.296875 
Q 45.609375 35.109375 42.65625 39.203125 
Q 39.703125 43.3125 34.078125 43.3125 
z
M 45.609375 7.90625 
Q 42 3.078125 37.640625 0.828125 
Q 33.296875 -1.421875 27.59375 -1.421875 
Q 17.484375 -1.421875 10.984375 6.609375 
Q 4.5 14.65625 4.5 27.296875 
Q 4.5 39.9375 10.984375 47.921875 
Q 17.484375 55.90625 27.59375 55.90625 
Q 33.296875 55.90625 37.640625 53.65625 
Q 42 51.421875 45.609375 46.578125 
L 45.609375 54.6875 
L 63.1875 54.6875 
L 63.1875 -20.796875 
L 45.609375 -20.796875 
z
" id="DejaVuSans-Bold-113"/>
      <path d="M 7.8125 21.296875 
L 7.8125 54.6875 
L 25.390625 54.6875 
L 25.390625 49.21875 
Q 25.390625 44.78125 25.34375 38.0625 
Q 25.296875 31.34375 25.296875 29.109375 
Q 25.296875 22.515625 25.640625 19.609375 
Q 25.984375 16.703125 26.8125 15.375 
Q 27.875 13.671875 29.609375 12.734375 
Q 31.34375 11.8125 33.59375 11.8125 
Q 39.0625 11.8125 42.1875 16.015625 
Q 45.3125 20.21875 45.3125 27.6875 
L 45.3125 54.6875 
L 62.796875 54.6875 
L 62.796875 0 
L 45.3125 0 
L 45.3125 7.90625 
Q 41.359375 3.125 36.9375 0.84375 
Q 32.515625 -1.421875 27.203125 -1.421875 
Q 17.71875 -1.421875 12.765625 4.390625 
Q 7.8125 10.203125 7.8125 21.296875 
z
" id="DejaVuSans-Bold-117"/>
      <path d="M 63.375 33.296875 
L 63.375 0 
L 45.796875 0 
L 45.796875 5.421875 
L 45.796875 25.484375 
Q 45.796875 32.5625 45.484375 35.25 
Q 45.171875 37.9375 44.390625 39.203125 
Q 43.359375 40.921875 41.59375 41.875 
Q 39.84375 42.828125 37.59375 42.828125 
Q 32.125 42.828125 29 38.59375 
Q 25.875 34.375 25.875 26.90625 
L 25.875 0 
L 8.40625 0 
L 8.40625 54.6875 
L 25.875 54.6875 
L 25.875 46.6875 
Q 29.828125 51.46875 34.265625 53.734375 
Q 38.71875 56 44.09375 56 
Q 53.5625 56 58.46875 50.1875 
Q 63.375 44.390625 63.375 33.296875 
z
" id="DejaVuSans-Bold-110"/>
      <path d="M 5.71875 54.6875 
L 53.421875 54.6875 
L 53.421875 42.484375 
L 24.609375 12.5 
L 53.421875 12.5 
L 53.421875 0 
L 4.5 0 
L 4.5 12.203125 
L 33.296875 42.1875 
L 5.71875 42.1875 
z
" id="DejaVuSans-Bold-122"/>
      <path id="DejaVuSans-Bold-32"/>
      <path d="M 44.390625 75.984375 
L 44.390625 64.5 
L 34.71875 64.5 
Q 31 64.5 29.53125 63.15625 
Q 28.078125 61.8125 28.078125 58.5 
L 28.078125 54.6875 
L 43.015625 54.6875 
L 43.015625 42.1875 
L 28.078125 42.1875 
L 28.078125 0 
L 10.59375 0 
L 10.59375 42.1875 
L 1.90625 42.1875 
L 1.90625 54.6875 
L 10.59375 54.6875 
L 10.59375 58.5 
Q 10.59375 67.4375 15.578125 71.703125 
Q 20.5625 75.984375 31 75.984375 
z
" id="DejaVuSans-Bold-102"/>
      <path d="M 8.59375 75.984375 
L 38.921875 75.984375 
L 38.921875 64.984375 
L 25.203125 64.984375 
L 25.203125 -2.203125 
L 38.921875 -2.203125 
L 38.921875 -13.1875 
L 8.59375 -13.1875 
z
" id="DejaVuSans-Bold-91"/>
      <path d="M 9.1875 72.90625 
L 27.984375 72.90625 
L 27.984375 45.125 
L 55.71875 45.125 
L 55.71875 72.90625 
L 74.515625 72.90625 
L 74.515625 0 
L 55.71875 0 
L 55.71875 30.90625 
L 27.984375 30.90625 
L 27.984375 0 
L 9.1875 0 
z
" id="DejaVuSans-Bold-72"/>
      <path d="M 37.109375 -13.1875 
L 6.78125 -13.1875 
L 6.78125 -2.203125 
L 20.515625 -2.203125 
L 20.515625 64.984375 
L 6.78125 64.984375 
L 6.78125 75.984375 
L 37.109375 75.984375 
z
" id="DejaVuSans-Bold-93"/>
     </defs>
     <g transform="translate(251.611719 345.176562)scale(0.1 -0.1)">
      <use xlink:href="#DejaVuSans-Bold-70"/>
      <use x="68.216797" xlink:href="#DejaVuSans-Bold-114"/>
      <use x="117.533203" xlink:href="#DejaVuSans-Bold-101"/>
      <use x="185.355469" xlink:href="#DejaVuSans-Bold-113"/>
      <use x="256.9375" xlink:href="#DejaVuSans-Bold-117"/>
      <use x="328.128906" xlink:href="#DejaVuSans-Bold-101"/>
      <use x="395.951172" xlink:href="#DejaVuSans-Bold-110"/>
      <use x="467.142578" xlink:href="#DejaVuSans-Bold-122"/>
      <use x="525.345703" xlink:href="#DejaVuSans-Bold-32"/>
      <use x="560.160156" xlink:href="#DejaVuSans-Bold-102"/>
      <use x="603.666016" xlink:href="#DejaVuSans-Bold-32"/>
      <use x="638.480469" xlink:href="#DejaVuSans-Bold-91"/>
      <use x="684.183594" xlink:href="#DejaVuSans-Bold-72"/>
      <use x="767.875" xlink:href="#DejaVuSans-Bold-122"/>
      <use x="826.078125" xlink:href="#DejaVuSans-Bold-93"/>
     </g>
    </g>
   </g>
   <g id="matplotlib.axis_2">
    <g id="ytick_1">
     <g id="line2d_71">
      <path clip-path="url(#pcbce21f9d6)" d="M 72 320.4 
L 518.4 320.4 
" style="fill:none;stroke:#808080;stroke-linecap:square;stroke-opacity:0.6;stroke-width:0.5;"/>
     </g>
     <g id="line2d_72">
      <defs>
       <path d="M 0 0 
L 3.5 0 
" id="mb19ffa9f69" style="stroke:#000000;stroke-width:0.8;"/>
      </defs>
      <g>
       <use style="stroke:#000000;stroke-width:0.8;" x="72" xlink:href="#mb19ffa9f69" y="320.4"/>
      </g>
     </g>
     <g id="text_12">
      <!-- −20 -->
      <defs>
       <path d="M 10.59375 35.5 
L 73.1875 35.5 
L 73.1875 27.203125 
L 10.59375 27.203125 
z
" id="DejaVuSans-8722"/>
      </defs>
      <g transform="translate(47.395313 324.199219)scale(0.1 -0.1)">
       <use xlink:href="#DejaVuSans-8722"/>
       <use x="83.789062" xlink:href="#DejaVuSans-50"/>
       <use x="147.412109" xlink:href="#DejaVuSans-48"/>
      </g>
     </g>
    </g>
    <g id="ytick_2">
     <g id="line2d_73">
      <path clip-path="url(#pcbce21f9d6)" d="M 72 274.2 
L 518.4 274.2 
" style="fill:none;stroke:#808080;stroke-linecap:square;stroke-opacity:0.6;stroke-width:0.5;"/>
     </g>
     <g id="line2d_74">
      <g>
       <use style="stroke:#000000;stroke-width:0.8;" x="72" xlink:href="#mb19ffa9f69" y="274.2"/>
      </g>
     </g>
     <g id="text_13">
      <!-- 0 -->
      <g transform="translate(62.1375 277.999219)scale(0.1 -0.1)">
       <use xlink:href="#DejaVuSans-48"/>
      </g>
     </g>
    </g>
    <g id="ytick_3">
     <g id="line2d_75">
      <path clip-path="url(#pcbce21f9d6)" d="M 72 228 
L 518.4 228 
" style="fill:none;stroke:#808080;stroke-linecap:square;stroke-opacity:0.6;stroke-width:0.5;"/>
     </g>
     <g id="line2d_76">
      <g>
       <use style="stroke:#000000;stroke-width:0.8;" x="72" xlink:href="#mb19ffa9f69" y="228"/>
      </g>
     </g>
     <g id="text_14">
      <!-- 20 -->
      <g transform="translate(55.775 231.799219)scale(0.1 -0.1)">
       <use xlink:href="#DejaVuSans-50"/>
       <use x="63.623047" xlink:href="#DejaVuSans-48"/>
      </g>
     </g>
    </g>
    <g id="ytick_4">
     <g id="line2d_77">
      <path clip-path="url(#pcbce21f9d6)" d="M 72 181.8 
L 518.4 181.8 
" style="fill:none;stroke:#808080;stroke-linecap:square;stroke-opacity:0.6;stroke-width:0.5;"/>
     </g>
     <g id="line2d_78">
      <g>
       <use style="stroke:#000000;stroke-width:0.8;" x="72" xlink:href="#mb19ffa9f69" y="181.8"/>
      </g>
     </g>
     <g id="text_15">
      <!-- 40 -->
      <defs>
       <path d="M 37.796875 64.3125 
L 12.890625 25.390625 
L 37.796875 25.390625 
z
M 35.203125 72.90625 
L 47.609375 72.90625 
L 47.609375 25.390625 
L 58.015625 25.390625 
L 58.015625 17.1875 
L 47.609375 17.1875 
L 47.609375 0 
L 37.796875 0 
L 37.796875 17.1875 
L 4.890625 17.1875 
L 4.890625 26.703125 
z
" id="DejaVuSans-52"/>
      </defs>
      <g transform="translate(55.775 185.599219)scale(0.1 -0.1)">
       <use xlink:href="#DejaVuSans-52"/>
       <use x="63.623047" xlink:href="#DejaVuSans-48"/>
      </g>
     </g>
    </g>
    <g id="ytick_5">
     <g id="line2d_79">
      <path clip-path="url(#pcbce21f9d6)" d="M 72 135.6 
L 518.4 135.6 
" style="fill:none;stroke:#808080;stroke-linecap:square;stroke-opacity:0.6;stroke-width:0.5;"/>
     </g>
     <g id="line2d_80">
      <g>
       <use style="stroke:#000000;stroke-width:0.8;" x="72" xlink:href="#mb19ffa9f69" y="135.6"/>
      </g>
     </g>
     <g id="text_16">
      <!-- 60 -->
      <defs>
       <path d="M 33.015625 40.375 
Q 26.375 40.375 22.484375 35.828125 
Q 18.609375 31.296875 18.609375 23.390625 
Q 18.609375 15.53125 22.484375 10.953125 
Q 26.375 6.390625 33.015625 6.390625 
Q 39.65625 6.390625 43.53125 10.953125 
Q 47.40625 15.53125 47.40625 23.390625 
Q 47.40625 31.296875 43.53125 35.828125 
Q 39.65625 40.375 33.015625 40.375 
z
M 52.59375 71.296875 
L 52.59375 62.3125 
Q 48.875 64.0625 45.09375 64.984375 
Q 41.3125 65.921875 37.59375 65.921875 
Q 27.828125 65.921875 22.671875 59.328125 
Q 17.53125 52.734375 16.796875 39.40625 
Q 19.671875 43.65625 24.015625 45.921875 
Q 28.375 48.1875 33.59375 48.1875 
Q 44.578125 48.1875 50.953125 41.515625 
Q 57.328125 34.859375 57.328125 23.390625 
Q 57.328125 12.15625 50.6875 5.359375 
Q 44.046875 -1.421875 33.015625 -1.421875 
Q 20.359375 -1.421875 13.671875 8.265625 
Q 6.984375 17.96875 6.984375 36.375 
Q 6.984375 53.65625 15.1875 63.9375 
Q 23.390625 74.21875 37.203125 74.21875 
Q 40.921875 74.21875 44.703125 73.484375 
Q 48.484375 72.75 52.59375 71.296875 
z
" id="DejaVuSans-54"/>
      </defs>
      <g transform="translate(55.775 139.399219)scale(0.1 -0.1)">
       <use xlink:href="#DejaVuSans-54"/>
       <use x="63.623047" xlink:href="#DejaVuSans-48"/>
      </g>
     </g>
    </g>
    <g id="ytick_6">
     <g id="line2d_81">
      <path clip-path="url(#pcbce21f9d6)" d="M 72 89.4 
L 518.4 89.4 
" style="fill:none;stroke:#808080;stroke-linecap:square;stroke-opacity:0.6;stroke-width:0.5;"/>
     </g>
     <g id="line2d_82">
      <g>
       <use style="stroke:#000000;stroke-width:0.8;" x="72" xlink:href="#mb19ffa9f69" y="89.4"/>
      </g>
     </g>
     <g id="text_17">
      <!-- 80 -->
      <defs>
       <path d="M 31.78125 34.625 
Q 24.75 34.625 20.71875 30.859375 
Q 16.703125 27.09375 16.703125 20.515625 
Q 16.703125 13.921875 20.71875 10.15625 
Q 24.75 6.390625 31.78125 6.390625 
Q 38.8125 6.390625 42.859375 10.171875 
Q 46.921875 13.96875 46.921875 20.515625 
Q 46.921875 27.09375 42.890625 30.859375 
Q 38.875 34.625 31.78125 34.625 
z
M 21.921875 38.8125 
Q 15.578125 40.375 12.03125 44.71875 
Q 8.5 49.078125 8.5 55.328125 
Q 8.5 64.0625 14.71875 69.140625 
Q 20.953125 74.21875 31.78125 74.21875 
Q 42.671875 74.21875 48.875 69.140625 
Q 55.078125 64.0625 55.078125 55.328125 
Q 55.078125 49.078125 51.53125 44.71875 
Q 48 40.375 41.703125 38.8125 
Q 48.828125 37.15625 52.796875 32.3125 
Q 56.78125 27.484375 56.78125 20.515625 
Q 56.78125 9.90625 50.3125 4.234375 
Q 43.84375 -1.421875 31.78125 -1.421875 
Q 19.734375 -1.421875 13.25 4.234375 
Q 6.78125 9.90625 6.78125 20.515625 
Q 6.78125 27.484375 10.78125 32.3125 
Q 14.796875 37.15625 21.921875 38.8125 
z
M 18.3125 54.390625 
Q 18.3125 48.734375 21.84375 45.5625 
Q 25.390625 42.390625 31.78125 42.390625 
Q 38.140625 42.390625 41.71875 45.5625 
Q 45.3125 48.734375 45.3125 54.390625 
Q 45.3125 60.0625 41.71875 63.234375 
Q 38.140625 66.40625 31.78125 66.40625 
Q 25.390625 66.40625 21.84375 63.234375 
Q 18.3125 60.0625 18.3125 54.390625 
z
" id="DejaVuSans-56"/>
      </defs>
      <g transform="translate(55.775 93.199219)scale(0.1 -0.1)">
       <use xlink:href="#DejaVuSans-56"/>
       <use x="63.623047" xlink:href="#DejaVuSans-48"/>
      </g>
     </g>
    </g>
    <g id="ytick_7">
     <g id="line2d_83">
      <path clip-path="url(#pcbce21f9d6)" d="M 72 43.2 
L 518.4 43.2 
" style="fill:none;stroke:#808080;stroke-linecap:square;stroke-opacity:0.6;stroke-width:0.5;"/>
     </g>
     <g id="line2d_84">
      <g>
       <use style="stroke:#000000;stroke-width:0.8;" x="72" xlink:href="#mb19ffa9f69" y="43.2"/>
      </g>
     </g>
     <g id="text_18">
      <!-- 100 -->
      <g transform="translate(49.4125 46.999219)scale(0.1 -0.1)">
       <use xlink:href="#DejaVuSans-49"/>
       <use x="63.623047" xlink:href="#DejaVuSans-48"/>
       <use x="127.246094" xlink:href="#DejaVuSans-48"/>
      </g>
     </g>
    </g>
    <g id="ytick_8">
     <g id="line2d_85">
      <path clip-path="url(#pcbce21f9d6)" d="M 72 297.3 
L 518.4 297.3 
" style="fill:none;stroke:#b0b0b0;stroke-dasharray:0.8,1.32;stroke-dashoffset:0;stroke-opacity:0.4;stroke-width:0.8;"/>
     </g>
     <g id="line2d_86">
      <defs>
       <path d="M 0 0 
L 2 0 
" id="m1105e0890e" style="stroke:#000000;stroke-width:0.6;"/>
      </defs>
      <g>
       <use style="stroke:#000000;stroke-width:0.6;" x="72" xlink:href="#m1105e0890e" y="297.3"/>
      </g>
     </g>
    </g>
    <g id="ytick_9">
     <g id="line2d_87">
      <path clip-path="url(#pcbce21f9d6)" d="M 72 251.1 
L 518.4 251.1 
" style="fill:none;stroke:#b0b0b0;stroke-dasharray:0.8,1.32;stroke-dashoffset:0;stroke-opacity:0.4;stroke-width:0.8;"/>
     </g>
     <g id="line2d_88">
      <g>
       <use style="stroke:#000000;stroke-width:0.6;" x="72" xlink:href="#m1105e0890e" y="251.1"/>
      </g>
     </g>
    </g>
    <g id="ytick_10">
     <g id="line2d_89">
      <path clip-path="url(#pcbce21f9d6)" d="M 72 204.9 
L 518.4 204.9 
" style="fill:none;stroke:#b0b0b0;stroke-dasharray:0.8,1.32;stroke-dashoffset:0;stroke-opacity:0.4;stroke-width:0.8;"/>
     </g>
     <g id="line2d_90">
      <g>
       <use style="stroke:#000000;stroke-width:0.6;" x="72" xlink:href="#m1105e0890e" y="204.9"/>
      </g>
     </g>
    </g>
    <g id="ytick_11">
     <g id="line2d_91">
      <path clip-path="url(#pcbce21f9d6)" d="M 72 158.7 
L 518.4 158.7 
" style="fill:none;stroke:#b0b0b0;stroke-dasharray:0.8,1.32;stroke-dashoffset:0;stroke-opacity:0.4;stroke-width:0.8;"/>
     </g>
     <g id="line2d_92">
      <g>
       <use style="stroke:#000000;stroke-width:0.6;" x="72" xlink:href="#m1105e0890e" y="158.7"/>
      </g>
     </g>
    </g>
    <g id="ytick_12">
     <g id="line2d_93">
      <path clip-path="url(#pcbce21f9d6)" d="M 72 112.5 
L 518.4 112.5 
" style="fill:none;stroke:#b0b0b0;stroke-dasharray:0.8,1.32;stroke-dashoffset:0;stroke-opacity:0.4;stroke-width:0.8;"/>
     </g>
     <g id="line2d_94">
      <g>
       <use style="stroke:#000000;stroke-width:0.6;" x="72" xlink:href="#m1105e0890e" y="112.5"/>
      </g>
     </g>
    </g>
    <g id="ytick_13">
     <g id="line2d_95">
      <path clip-path="url(#pcbce21f9d6)" d="M 72 66.3 
L 518.4 66.3 
" style="fill:none;stroke:#b0b0b0;stroke-dasharray:0.8,1.32;stroke-dashoffset:0;stroke-opacity:0.4;stroke-width:0.8;"/>
     </g>
     <g id="line2d_96">
      <g>
       <use style="stroke:#000000;stroke-width:0.6;" x="72" xlink:href="#m1105e0890e" y="66.3"/>
      </g>
     </g>
    </g>
    <g id="text_19">
     <!-- Pegel L [dB] -->
     <defs>
      <path d="M 9.1875 72.90625 
L 40.375 72.90625 
Q 54.296875 72.90625 61.734375 66.71875 
Q 69.1875 60.546875 69.1875 49.125 
Q 69.1875 37.640625 61.734375 31.46875 
Q 54.296875 25.296875 40.375 25.296875 
L 27.984375 25.296875 
L 27.984375 0 
L 9.1875 0 
z
M 27.984375 59.28125 
L 27.984375 38.921875 
L 38.375 38.921875 
Q 43.84375 38.921875 46.828125 41.578125 
Q 49.8125 44.234375 49.8125 49.125 
Q 49.8125 54 46.828125 56.640625 
Q 43.84375 59.28125 38.375 59.28125 
z
" id="DejaVuSans-Bold-80"/>
      <path d="M 45.609375 9.28125 
Q 42 4.5 37.640625 2.25 
Q 33.296875 0 27.59375 0 
Q 17.578125 0 11.03125 7.875 
Q 4.5 15.765625 4.5 27.984375 
Q 4.5 40.234375 11.03125 48.0625 
Q 17.578125 55.90625 27.59375 55.90625 
Q 33.296875 55.90625 37.640625 53.65625 
Q 42 51.421875 45.609375 46.578125 
L 45.609375 54.6875 
L 63.1875 54.6875 
L 63.1875 5.515625 
Q 63.1875 -7.671875 54.859375 -14.625 
Q 46.53125 -21.578125 30.71875 -21.578125 
Q 25.59375 -21.578125 20.796875 -20.796875 
Q 16.015625 -20.015625 11.1875 -18.40625 
L 11.1875 -4.78125 
Q 15.765625 -7.421875 20.15625 -8.71875 
Q 24.5625 -10.015625 29 -10.015625 
Q 37.59375 -10.015625 41.59375 -6.25 
Q 45.609375 -2.484375 45.609375 5.515625 
z
M 34.078125 43.3125 
Q 28.65625 43.3125 25.625 39.296875 
Q 22.609375 35.296875 22.609375 27.984375 
Q 22.609375 20.453125 25.53125 16.578125 
Q 28.46875 12.703125 34.078125 12.703125 
Q 39.546875 12.703125 42.578125 16.703125 
Q 45.609375 20.703125 45.609375 27.984375 
Q 45.609375 35.296875 42.578125 39.296875 
Q 39.546875 43.3125 34.078125 43.3125 
z
" id="DejaVuSans-Bold-103"/>
      <path d="M 8.40625 75.984375 
L 25.875 75.984375 
L 25.875 0 
L 8.40625 0 
z
" id="DejaVuSans-Bold-108"/>
      <path d="M 9.1875 72.90625 
L 27.984375 72.90625 
L 27.984375 14.203125 
L 60.984375 14.203125 
L 60.984375 0 
L 9.1875 0 
z
" id="DejaVuSans-Bold-76"/>
      <path d="M 45.609375 46.6875 
L 45.609375 75.984375 
L 63.1875 75.984375 
L 63.1875 0 
L 45.609375 0 
L 45.609375 7.90625 
Q 42 3.078125 37.640625 0.828125 
Q 33.296875 -1.421875 27.59375 -1.421875 
Q 17.484375 -1.421875 10.984375 6.609375 
Q 4.5 14.65625 4.5 27.296875 
Q 4.5 39.9375 10.984375 47.96875 
Q 17.484375 56 27.59375 56 
Q 33.25 56 37.625 53.734375 
Q 42 51.46875 45.609375 46.6875 
z
M 34.078125 11.28125 
Q 39.703125 11.28125 42.65625 15.375 
Q 45.609375 19.484375 45.609375 27.296875 
Q 45.609375 35.109375 42.65625 39.203125 
Q 39.703125 43.3125 34.078125 43.3125 
Q 28.515625 43.3125 25.5625 39.203125 
Q 22.609375 35.109375 22.609375 27.296875 
Q 22.609375 19.484375 25.5625 15.375 
Q 28.515625 11.28125 34.078125 11.28125 
z
" id="DejaVuSans-Bold-100"/>
      <path d="M 38.375 44.671875 
Q 42.828125 44.671875 45.109375 46.625 
Q 47.40625 48.578125 47.40625 52.390625 
Q 47.40625 56.15625 45.109375 58.125 
Q 42.828125 60.109375 38.375 60.109375 
L 27.984375 60.109375 
L 27.984375 44.671875 
z
M 39.015625 12.796875 
Q 44.671875 12.796875 47.53125 15.1875 
Q 50.390625 17.578125 50.390625 22.40625 
Q 50.390625 27.15625 47.5625 29.515625 
Q 44.734375 31.890625 39.015625 31.890625 
L 27.984375 31.890625 
L 27.984375 12.796875 
z
M 56.5 39.015625 
Q 62.546875 37.25 65.859375 32.515625 
Q 69.1875 27.78125 69.1875 20.90625 
Q 69.1875 10.359375 62.0625 5.171875 
Q 54.9375 0 40.375 0 
L 9.1875 0 
L 9.1875 72.90625 
L 37.40625 72.90625 
Q 52.59375 72.90625 59.40625 68.3125 
Q 66.21875 63.71875 66.21875 53.609375 
Q 66.21875 48.296875 63.71875 44.5625 
Q 61.234375 40.828125 56.5 39.015625 
z
" id="DejaVuSans-Bold-66"/>
     </defs>
     <g transform="translate(41.2375 216.167969)rotate(-90)scale(0.1 -0.1)">
      <use xlink:href="#DejaVuSans-Bold-80"/>
      <use x="73.291016" xlink:href="#DejaVuSans-Bold-101"/>
      <use x="141.113281" xlink:href="#DejaVuSans-Bold-103"/>
      <use x="212.695312" xlink:href="#DejaVuSans-Bold-101"/>
      <use x="280.517578" xlink:href="#DejaVuSans-Bold-108"/>
      <use x="314.794922" xlink:href="#DejaVuSans-Bold-32"/>
      <use x="349.609375" xlink:href="#DejaVuSans-Bold-76"/>
      <use x="413.330078" xlink:href="#DejaVuSans-Bold-32"/>
      <use x="448.144531" xlink:href="#DejaVuSans-Bold-91"/>
      <use x="493.847656" xlink:href="#DejaVuSans-Bold-100"/>
      <use x="565.429688" xlink:href="#DejaVuSans-Bold-66"/>
      <use x="641.650391" xlink:href="#DejaVuSans-Bold-93"/>
     </g>
    </g>
   </g>
   <g id="patch_3">
    <path d="M 72 320.4 
L 72 43.2 
" style="fill:none;stroke:#000000;stroke-linecap:square;stroke-linejoin:miter;stroke-width:0.8;"/>
   </g>
   <g id="patch_4">
    <path d="M 518.4 320.4 
L 518.4 43.2 
" style="fill:none;stroke:#000000;stroke-linecap:square;stroke-linejoin:miter;stroke-width:0.8;"/>
   </g>
   <g id="patch_5">
    <path d="M 72 320.4 
L 518.4 320.4 
" style="fill:none;stroke:#000000;stroke-linecap:square;stroke-linejoin:miter;stroke-width:0.8;"/>
   </g>
   <g id="patch_6">
    <path d="M 72 43.2 
L 518.4 43.2 
" style="fill:none;stroke:#000000;stroke-linecap:square;stroke-linejoin:miter;stroke-width:0.8;"/>
   </g>
   <g id="text_20">
    <!-- 2022-11-24T14:37:15 -->
    <defs>
     <path d="M 4.890625 31.390625 
L 31.203125 31.390625 
L 31.203125 23.390625 
L 4.890625 23.390625 
z
" id="DejaVuSans-45"/>
     <path d="M -0.296875 72.90625 
L 61.375 72.90625 
L 61.375 64.59375 
L 35.5 64.59375 
L 35.5 0 
L 25.59375 0 
L 25.59375 64.59375 
L -0.296875 64.59375 
z
" id="DejaVuSans-84"/>
     <path d="M 11.71875 12.40625 
L 22.015625 12.40625 
L 22.015625 0 
L 11.71875 0 
z
M 11.71875 51.703125 
L 22.015625 51.703125 
L 22.015625 39.3125 
L 11.71875 39.3125 
z
" id="DejaVuSans-58"/>
     <path d="M 40.578125 39.3125 
Q 47.65625 37.796875 51.625 33 
Q 55.609375 28.21875 55.609375 21.1875 
Q 55.609375 10.40625 48.1875 4.484375 
Q 40.765625 -1.421875 27.09375 -1.421875 
Q 22.515625 -1.421875 17.65625 -0.515625 
Q 12.796875 0.390625 7.625 2.203125 
L 7.625 11.71875 
Q 11.71875 9.328125 16.59375 8.109375 
Q 21.484375 6.890625 26.8125 6.890625 
Q 36.078125 6.890625 40.9375 10.546875 
Q 45.796875 14.203125 45.796875 21.1875 
Q 45.796875 27.640625 41.28125 31.265625 
Q 36.765625 34.90625 28.71875 34.90625 
L 20.21875 34.90625 
L 20.21875 43.015625 
L 29.109375 43.015625 
Q 36.375 43.015625 40.234375 45.921875 
Q 44.09375 48.828125 44.09375 54.296875 
Q 44.09375 59.90625 40.109375 62.90625 
Q 36.140625 65.921875 28.71875 65.921875 
Q 24.65625 65.921875 20.015625 65.03125 
Q 15.375 64.15625 9.8125 62.3125 
L 9.8125 71.09375 
Q 15.4375 72.65625 20.34375 73.4375 
Q 25.25 74.21875 29.59375 74.21875 
Q 40.828125 74.21875 47.359375 69.109375 
Q 53.90625 64.015625 53.90625 55.328125 
Q 53.90625 49.265625 50.4375 45.09375 
Q 46.96875 40.921875 40.578125 39.3125 
z
" id="DejaVuSans-51"/>
     <path d="M 8.203125 72.90625 
L 55.078125 72.90625 
L 55.078125 68.703125 
L 28.609375 0 
L 18.3125 0 
L 43.21875 64.59375 
L 8.203125 64.59375 
z
" id="DejaVuSans-55"/>
    </defs>
    <g transform="translate(431.09125 36.91625)scale(0.08 -0.08)">
     <use xlink:href="#DejaVuSans-50"/>
     <use x="63.623047" xlink:href="#DejaVuSans-48"/>
     <use x="127.246094" xlink:href="#DejaVuSans-50"/>
     <use x="190.869141" xlink:href="#DejaVuSans-50"/>
     <use x="254.492188" xlink:href="#DejaVuSans-45"/>
     <use x="290.576172" xlink:href="#DejaVuSans-49"/>
     <use x="354.199219" xlink:href="#DejaVuSans-49"/>
     <use x="417.822266" xlink:href="#DejaVuSans-45"/>
     <use x="453.90625" xlink:href="#DejaVuSans-50"/>
     <use x="517.529297" xlink:href="#DejaVuSans-52"/>
     <use x="581.152344" xlink:href="#DejaVuSans-84"/>
     <use x="642.236328" xlink:href="#DejaVuSans-49"/>
     <use x="705.859375" xlink:href="#DejaVuSans-52"/>
     <use x="769.482422" xlink:href="#DejaVuSans-58"/>
     <use x="803.173828" xlink:href="#DejaVuSans-51"/>
     <use x="866.796875" xlink:href="#DejaVuSans-55"/>
     <use x="930.419922" xlink:href="#DejaVuSans-58"/>
     <use x="964.111328" xlink:href="#DejaVuSans-49"/>
     <use x="1027.734375" xlink:href="#DejaVuSans-53"/>
    </g>
   </g>
   <g id="text_21">
    <!-- Ruhehörschwelle -->
    <defs>
     <path d="M 35.890625 40.578125 
Q 41.796875 40.578125 44.359375 42.765625 
Q 46.921875 44.96875 46.921875 50 
Q 46.921875 54.984375 44.359375 57.125 
Q 41.796875 59.28125 35.890625 59.28125 
L 27.984375 59.28125 
L 27.984375 40.578125 
z
M 27.984375 27.59375 
L 27.984375 0 
L 9.1875 0 
L 9.1875 72.90625 
L 37.890625 72.90625 
Q 52.296875 72.90625 59 68.0625 
Q 65.71875 63.234375 65.71875 52.78125 
Q 65.71875 45.5625 62.21875 40.921875 
Q 58.734375 36.28125 51.703125 34.078125 
Q 55.5625 33.203125 58.609375 30.09375 
Q 61.671875 27 64.796875 20.703125 
L 75 0 
L 54.984375 0 
L 46.09375 18.109375 
Q 43.40625 23.578125 40.640625 25.578125 
Q 37.890625 27.59375 33.296875 27.59375 
z
" id="DejaVuSans-Bold-82"/>
     <path d="M 63.375 33.296875 
L 63.375 0 
L 45.796875 0 
L 45.796875 5.421875 
L 45.796875 25.390625 
Q 45.796875 32.5625 45.484375 35.25 
Q 45.171875 37.9375 44.390625 39.203125 
Q 43.359375 40.921875 41.59375 41.875 
Q 39.84375 42.828125 37.59375 42.828125 
Q 32.125 42.828125 29 38.59375 
Q 25.875 34.375 25.875 26.90625 
L 25.875 0 
L 8.40625 0 
L 8.40625 75.984375 
L 25.875 75.984375 
L 25.875 46.6875 
Q 29.828125 51.46875 34.265625 53.734375 
Q 38.71875 56 44.09375 56 
Q 53.5625 56 58.46875 50.1875 
Q 63.375 44.390625 63.375 33.296875 
z
" id="DejaVuSans-Bold-104"/>
     <path d="M 34.421875 43.5 
Q 28.609375 43.5 25.5625 39.328125 
Q 22.515625 35.15625 22.515625 27.296875 
Q 22.515625 19.4375 25.5625 15.25 
Q 28.609375 11.078125 34.421875 11.078125 
Q 40.140625 11.078125 43.15625 15.25 
Q 46.1875 19.4375 46.1875 27.296875 
Q 46.1875 35.15625 43.15625 39.328125 
Q 40.140625 43.5 34.421875 43.5 
z
M 34.421875 56 
Q 48.53125 56 56.46875 48.375 
Q 64.40625 40.765625 64.40625 27.296875 
Q 64.40625 13.8125 56.46875 6.1875 
Q 48.53125 -1.421875 34.421875 -1.421875 
Q 20.265625 -1.421875 12.28125 6.1875 
Q 4.296875 13.8125 4.296875 27.296875 
Q 4.296875 40.765625 12.28125 48.375 
Q 20.265625 56 34.421875 56 
z
M 18.875 77.390625 
L 30.34375 77.390625 
L 30.34375 65.375 
L 18.875 65.375 
z
M 38.15625 77.390625 
L 49.625 77.390625 
L 49.625 65.375 
L 38.15625 65.375 
z
" id="DejaVuSans-Bold-246"/>
     <path d="M 51.125 52.984375 
L 51.125 39.703125 
Q 45.515625 42.046875 40.28125 43.21875 
Q 35.0625 44.390625 30.421875 44.390625 
Q 25.4375 44.390625 23.015625 43.140625 
Q 20.609375 41.890625 20.609375 39.3125 
Q 20.609375 37.203125 22.4375 36.078125 
Q 24.265625 34.96875 29 34.421875 
L 32.078125 33.984375 
Q 45.515625 32.28125 50.140625 28.375 
Q 54.78125 24.46875 54.78125 16.109375 
Q 54.78125 7.375 48.328125 2.96875 
Q 41.890625 -1.421875 29.109375 -1.421875 
Q 23.6875 -1.421875 17.890625 -0.5625 
Q 12.109375 0.296875 6 2 
L 6 15.28125 
Q 11.234375 12.75 16.71875 11.46875 
Q 22.21875 10.203125 27.875 10.203125 
Q 33.015625 10.203125 35.59375 11.609375 
Q 38.1875 13.03125 38.1875 15.828125 
Q 38.1875 18.171875 36.40625 19.3125 
Q 34.625 20.453125 29.296875 21.09375 
L 26.21875 21.484375 
Q 14.546875 22.953125 9.859375 26.90625 
Q 5.171875 30.859375 5.171875 38.921875 
Q 5.171875 47.609375 11.125 51.796875 
Q 17.09375 56 29.390625 56 
Q 34.234375 56 39.546875 55.265625 
Q 44.875 54.546875 51.125 52.984375 
z
" id="DejaVuSans-Bold-115"/>
     <path d="M 52.59375 52.984375 
L 52.59375 38.71875 
Q 49.03125 41.15625 45.4375 42.328125 
Q 41.84375 43.5 37.984375 43.5 
Q 30.671875 43.5 26.59375 39.234375 
Q 22.515625 34.96875 22.515625 27.296875 
Q 22.515625 19.625 26.59375 15.34375 
Q 30.671875 11.078125 37.984375 11.078125 
Q 42.09375 11.078125 45.78125 12.296875 
Q 49.46875 13.53125 52.59375 15.921875 
L 52.59375 1.609375 
Q 48.484375 0.09375 44.265625 -0.65625 
Q 40.046875 -1.421875 35.796875 -1.421875 
Q 21 -1.421875 12.640625 6.171875 
Q 4.296875 13.765625 4.296875 27.296875 
Q 4.296875 40.828125 12.640625 48.40625 
Q 21 56 35.796875 56 
Q 40.09375 56 44.265625 55.25 
Q 48.4375 54.5 52.59375 52.984375 
z
" id="DejaVuSans-Bold-99"/>
     <path d="M 3.515625 54.6875 
L 20.515625 54.6875 
L 29.6875 17 
L 38.921875 54.6875 
L 53.515625 54.6875 
L 62.703125 17.390625 
L 71.921875 54.6875 
L 88.921875 54.6875 
L 74.515625 0 
L 55.421875 0 
L 46.1875 37.59375 
L 37.015625 0 
L 17.921875 0 
z
" id="DejaVuSans-Bold-119"/>
    </defs>
    <g transform="translate(227.79 34.288437)scale(0.14 -0.14)">
     <use xlink:href="#DejaVuSans-Bold-82"/>
     <use x="77.001953" xlink:href="#DejaVuSans-Bold-117"/>
     <use x="148.193359" xlink:href="#DejaVuSans-Bold-104"/>
     <use x="219.384766" xlink:href="#DejaVuSans-Bold-101"/>
     <use x="287.207031" xlink:href="#DejaVuSans-Bold-104"/>
     <use x="358.398438" xlink:href="#DejaVuSans-Bold-246"/>
     <use x="427.099609" xlink:href="#DejaVuSans-Bold-114"/>
     <use x="476.416016" xlink:href="#DejaVuSans-Bold-115"/>
     <use x="535.9375" xlink:href="#DejaVuSans-Bold-99"/>
     <use x="595.214844" xlink:href="#DejaVuSans-Bold-104"/>
     <use x="666.40625" xlink:href="#DejaVuSans-Bold-119"/>
     <use x="758.789062" xlink:href="#DejaVuSans-Bold-101"/>
     <use x="826.611328" xlink:href="#DejaVuSans-Bold-108"/>
     <use x="860.888672" xlink:href="#DejaVuSans-Bold-108"/>
     <use x="895.166016" xlink:href="#DejaVuSans-Bold-101"/>
    </g>
   </g>
   <g id="legend_1">
    <g id="patch_7">
     <path d="M 385.76875 95.234375 
L 511.4 95.234375 
Q 513.4 95.234375 513.4 93.234375 
L 513.4 50.2 
Q 513.4 48.2 511.4 48.2 
L 385.76875 48.2 
Q 383.76875 48.2 383.76875 50.2 
L 383.76875 93.234375 
Q 383.76875 95.234375 385.76875 95.234375 
z
" style="fill:#ffffff;opacity:0.8;stroke:#cccccc;stroke-linejoin:miter;"/>
    </g>
    <g id="line2d_97">
     <path d="M 387.76875 56.298437 
L 407.76875 56.298437 
" style="fill:none;stroke:#cc4c4c;stroke-linecap:square;"/>
    </g>
    <g id="line2d_98">
     <defs>
      <path d="M 0 1.5 
C 0.397805 1.5 0.77937 1.341951 1.06066 1.06066 
C 1.341951 0.77937 1.5 0.397805 1.5 0 
C 1.5 -0.397805 1.341951 -0.77937 1.06066 -1.06066 
C 0.77937 -1.341951 0.397805 -1.5 0 -1.5 
C -0.397805 -1.5 -0.77937 -1.341951 -1.06066 -1.06066 
C -1.341951 -0.77937 -1.5 -0.397805 -1.5 0 
C -1.5 0.397805 -1.341951 0.77937 -1.06066 1.06066 
C -0.77937 1.341951 -0.397805 1.5 0 1.5 
z
" id="mc717798413" style="stroke:#cc4c4c;"/>
     </defs>
     <g>
      <use style="fill:#cc4c4c;stroke:#cc4c4c;" x="397.76875" xlink:href="#mc717798413" y="56.298437"/>
     </g>
    </g>
    <g id="text_22">
     <!-- DIN EN ISO 389-7 -->
     <defs>
      <path d="M 19.671875 64.796875 
L 19.671875 8.109375 
L 31.59375 8.109375 
Q 46.6875 8.109375 53.6875 14.9375 
Q 60.6875 21.78125 60.6875 36.53125 
Q 60.6875 51.171875 53.6875 57.984375 
Q 46.6875 64.796875 31.59375 64.796875 
z
M 9.8125 72.90625 
L 30.078125 72.90625 
Q 51.265625 72.90625 61.171875 64.09375 
Q 71.09375 55.28125 71.09375 36.53125 
Q 71.09375 17.671875 61.125 8.828125 
Q 51.171875 0 30.078125 0 
L 9.8125 0 
z
" id="DejaVuSans-68"/>
      <path d="M 9.8125 72.90625 
L 19.671875 72.90625 
L 19.671875 0 
L 9.8125 0 
z
" id="DejaVuSans-73"/>
      <path d="M 9.8125 72.90625 
L 23.09375 72.90625 
L 55.421875 11.921875 
L 55.421875 72.90625 
L 64.984375 72.90625 
L 64.984375 0 
L 51.703125 0 
L 19.390625 60.984375 
L 19.390625 0 
L 9.8125 0 
z
" id="DejaVuSans-78"/>
      <path id="DejaVuSans-32"/>
      <path d="M 9.8125 72.90625 
L 55.90625 72.90625 
L 55.90625 64.59375 
L 19.671875 64.59375 
L 19.671875 43.015625 
L 54.390625 43.015625 
L 54.390625 34.71875 
L 19.671875 34.71875 
L 19.671875 8.296875 
L 56.78125 8.296875 
L 56.78125 0 
L 9.8125 0 
z
" id="DejaVuSans-69"/>
      <path d="M 53.515625 70.515625 
L 53.515625 60.890625 
Q 47.90625 63.578125 42.921875 64.890625 
Q 37.9375 66.21875 33.296875 66.21875 
Q 25.25 66.21875 20.875 63.09375 
Q 16.5 59.96875 16.5 54.203125 
Q 16.5 49.359375 19.40625 46.890625 
Q 22.3125 44.4375 30.421875 42.921875 
L 36.375 41.703125 
Q 47.40625 39.59375 52.65625 34.296875 
Q 57.90625 29 57.90625 20.125 
Q 57.90625 9.515625 50.796875 4.046875 
Q 43.703125 -1.421875 29.984375 -1.421875 
Q 24.8125 -1.421875 18.96875 -0.25 
Q 13.140625 0.921875 6.890625 3.21875 
L 6.890625 13.375 
Q 12.890625 10.015625 18.65625 8.296875 
Q 24.421875 6.59375 29.984375 6.59375 
Q 38.421875 6.59375 43.015625 9.90625 
Q 47.609375 13.234375 47.609375 19.390625 
Q 47.609375 24.75 44.3125 27.78125 
Q 41.015625 30.8125 33.5 32.328125 
L 27.484375 33.5 
Q 16.453125 35.6875 11.515625 40.375 
Q 6.59375 45.0625 6.59375 53.421875 
Q 6.59375 63.09375 13.40625 68.65625 
Q 20.21875 74.21875 32.171875 74.21875 
Q 37.3125 74.21875 42.625 73.28125 
Q 47.953125 72.359375 53.515625 70.515625 
z
" id="DejaVuSans-83"/>
      <path d="M 39.40625 66.21875 
Q 28.65625 66.21875 22.328125 58.203125 
Q 16.015625 50.203125 16.015625 36.375 
Q 16.015625 22.609375 22.328125 14.59375 
Q 28.65625 6.59375 39.40625 6.59375 
Q 50.140625 6.59375 56.421875 14.59375 
Q 62.703125 22.609375 62.703125 36.375 
Q 62.703125 50.203125 56.421875 58.203125 
Q 50.140625 66.21875 39.40625 66.21875 
z
M 39.40625 74.21875 
Q 54.734375 74.21875 63.90625 63.9375 
Q 73.09375 53.65625 73.09375 36.375 
Q 73.09375 19.140625 63.90625 8.859375 
Q 54.734375 -1.421875 39.40625 -1.421875 
Q 24.03125 -1.421875 14.8125 8.828125 
Q 5.609375 19.09375 5.609375 36.375 
Q 5.609375 53.65625 14.8125 63.9375 
Q 24.03125 74.21875 39.40625 74.21875 
z
" id="DejaVuSans-79"/>
      <path d="M 10.984375 1.515625 
L 10.984375 10.5 
Q 14.703125 8.734375 18.5 7.8125 
Q 22.3125 6.890625 25.984375 6.890625 
Q 35.75 6.890625 40.890625 13.453125 
Q 46.046875 20.015625 46.78125 33.40625 
Q 43.953125 29.203125 39.59375 26.953125 
Q 35.25 24.703125 29.984375 24.703125 
Q 19.046875 24.703125 12.671875 31.3125 
Q 6.296875 37.9375 6.296875 49.421875 
Q 6.296875 60.640625 12.9375 67.421875 
Q 19.578125 74.21875 30.609375 74.21875 
Q 43.265625 74.21875 49.921875 64.515625 
Q 56.59375 54.828125 56.59375 36.375 
Q 56.59375 19.140625 48.40625 8.859375 
Q 40.234375 -1.421875 26.421875 -1.421875 
Q 22.703125 -1.421875 18.890625 -0.6875 
Q 15.09375 0.046875 10.984375 1.515625 
z
M 30.609375 32.421875 
Q 37.25 32.421875 41.125 36.953125 
Q 45.015625 41.5 45.015625 49.421875 
Q 45.015625 57.28125 41.125 61.84375 
Q 37.25 66.40625 30.609375 66.40625 
Q 23.96875 66.40625 20.09375 61.84375 
Q 16.21875 57.28125 16.21875 49.421875 
Q 16.21875 41.5 20.09375 36.953125 
Q 23.96875 32.421875 30.609375 32.421875 
z
" id="DejaVuSans-57"/>
     </defs>
     <g transform="translate(415.76875 59.798437)scale(0.1 -0.1)">
      <use xlink:href="#DejaVuSans-68"/>
      <use x="77.001953" xlink:href="#DejaVuSans-73"/>
      <use x="106.494141" xlink:href="#DejaVuSans-78"/>
      <use x="181.298828" xlink:href="#DejaVuSans-32"/>
      <use x="213.085938" xlink:href="#DejaVuSans-69"/>
      <use x="276.269531" xlink:href="#DejaVuSans-78"/>
      <use x="351.074219" xlink:href="#DejaVuSans-32"/>
      <use x="382.861328" xlink:href="#DejaVuSans-73"/>
      <use x="412.353516" xlink:href="#DejaVuSans-83"/>
      <use x="475.830078" xlink:href="#DejaVuSans-79"/>
      <use x="554.541016" xlink:href="#DejaVuSans-32"/>
      <use x="586.328125" xlink:href="#DejaVuSans-51"/>
      <use x="649.951172" xlink:href="#DejaVuSans-56"/>
      <use x="713.574219" xlink:href="#DejaVuSans-57"/>
      <use x="777.197266" xlink:href="#DejaVuSans-45"/>
      <use x="813.28125" xlink:href="#DejaVuSans-55"/>
     </g>
    </g>
    <g id="line2d_99">
     <path d="M 387.76875 70.976562 
L 407.76875 70.976562 
" style="fill:none;stroke:#5454a8;stroke-linecap:square;"/>
    </g>
    <g id="line2d_100"/>
    <g id="text_23">
     <!-- Justin Pallas (links) -->
     <defs>
      <path d="M 9.8125 72.90625 
L 19.671875 72.90625 
L 19.671875 5.078125 
Q 19.671875 -8.109375 14.671875 -14.0625 
Q 9.671875 -20.015625 -1.421875 -20.015625 
L -5.171875 -20.015625 
L -5.171875 -11.71875 
L -2.09375 -11.71875 
Q 4.4375 -11.71875 7.125 -8.046875 
Q 9.8125 -4.390625 9.8125 5.078125 
z
" id="DejaVuSans-74"/>
      <path d="M 8.5 21.578125 
L 8.5 54.6875 
L 17.484375 54.6875 
L 17.484375 21.921875 
Q 17.484375 14.15625 20.5 10.265625 
Q 23.53125 6.390625 29.59375 6.390625 
Q 36.859375 6.390625 41.078125 11.03125 
Q 45.3125 15.671875 45.3125 23.6875 
L 45.3125 54.6875 
L 54.296875 54.6875 
L 54.296875 0 
L 45.3125 0 
L 45.3125 8.40625 
Q 42.046875 3.421875 37.71875 1 
Q 33.40625 -1.421875 27.6875 -1.421875 
Q 18.265625 -1.421875 13.375 4.4375 
Q 8.5 10.296875 8.5 21.578125 
z
M 31.109375 56 
z
" id="DejaVuSans-117"/>
      <path d="M 44.28125 53.078125 
L 44.28125 44.578125 
Q 40.484375 46.53125 36.375 47.5 
Q 32.28125 48.484375 27.875 48.484375 
Q 21.1875 48.484375 17.84375 46.4375 
Q 14.5 44.390625 14.5 40.28125 
Q 14.5 37.15625 16.890625 35.375 
Q 19.28125 33.59375 26.515625 31.984375 
L 29.59375 31.296875 
Q 39.15625 29.25 43.1875 25.515625 
Q 47.21875 21.78125 47.21875 15.09375 
Q 47.21875 7.46875 41.1875 3.015625 
Q 35.15625 -1.421875 24.609375 -1.421875 
Q 20.21875 -1.421875 15.453125 -0.5625 
Q 10.6875 0.296875 5.421875 2 
L 5.421875 11.28125 
Q 10.40625 8.6875 15.234375 7.390625 
Q 20.0625 6.109375 24.8125 6.109375 
Q 31.15625 6.109375 34.5625 8.28125 
Q 37.984375 10.453125 37.984375 14.40625 
Q 37.984375 18.0625 35.515625 20.015625 
Q 33.0625 21.96875 24.703125 23.78125 
L 21.578125 24.515625 
Q 13.234375 26.265625 9.515625 29.90625 
Q 5.8125 33.546875 5.8125 39.890625 
Q 5.8125 47.609375 11.28125 51.796875 
Q 16.75 56 26.8125 56 
Q 31.78125 56 36.171875 55.265625 
Q 40.578125 54.546875 44.28125 53.078125 
z
" id="DejaVuSans-115"/>
      <path d="M 18.3125 70.21875 
L 18.3125 54.6875 
L 36.8125 54.6875 
L 36.8125 47.703125 
L 18.3125 47.703125 
L 18.3125 18.015625 
Q 18.3125 11.328125 20.140625 9.421875 
Q 21.96875 7.515625 27.59375 7.515625 
L 36.8125 7.515625 
L 36.8125 0 
L 27.59375 0 
Q 17.1875 0 13.234375 3.875 
Q 9.28125 7.765625 9.28125 18.015625 
L 9.28125 47.703125 
L 2.6875 47.703125 
L 2.6875 54.6875 
L 9.28125 54.6875 
L 9.28125 70.21875 
z
" id="DejaVuSans-116"/>
      <path d="M 9.421875 54.6875 
L 18.40625 54.6875 
L 18.40625 0 
L 9.421875 0 
z
M 9.421875 75.984375 
L 18.40625 75.984375 
L 18.40625 64.59375 
L 9.421875 64.59375 
z
" id="DejaVuSans-105"/>
      <path d="M 54.890625 33.015625 
L 54.890625 0 
L 45.90625 0 
L 45.90625 32.71875 
Q 45.90625 40.484375 42.875 44.328125 
Q 39.84375 48.1875 33.796875 48.1875 
Q 26.515625 48.1875 22.3125 43.546875 
Q 18.109375 38.921875 18.109375 30.90625 
L 18.109375 0 
L 9.078125 0 
L 9.078125 54.6875 
L 18.109375 54.6875 
L 18.109375 46.1875 
Q 21.34375 51.125 25.703125 53.5625 
Q 30.078125 56 35.796875 56 
Q 45.21875 56 50.046875 50.171875 
Q 54.890625 44.34375 54.890625 33.015625 
z
" id="DejaVuSans-110"/>
      <path d="M 19.671875 64.796875 
L 19.671875 37.40625 
L 32.078125 37.40625 
Q 38.96875 37.40625 42.71875 40.96875 
Q 46.484375 44.53125 46.484375 51.125 
Q 46.484375 57.671875 42.71875 61.234375 
Q 38.96875 64.796875 32.078125 64.796875 
z
M 9.8125 72.90625 
L 32.078125 72.90625 
Q 44.34375 72.90625 50.609375 67.359375 
Q 56.890625 61.8125 56.890625 51.125 
Q 56.890625 40.328125 50.609375 34.8125 
Q 44.34375 29.296875 32.078125 29.296875 
L 19.671875 29.296875 
L 19.671875 0 
L 9.8125 0 
z
" id="DejaVuSans-80"/>
      <path d="M 34.28125 27.484375 
Q 23.390625 27.484375 19.1875 25 
Q 14.984375 22.515625 14.984375 16.5 
Q 14.984375 11.71875 18.140625 8.90625 
Q 21.296875 6.109375 26.703125 6.109375 
Q 34.1875 6.109375 38.703125 11.40625 
Q 43.21875 16.703125 43.21875 25.484375 
L 43.21875 27.484375 
z
M 52.203125 31.203125 
L 52.203125 0 
L 43.21875 0 
L 43.21875 8.296875 
Q 40.140625 3.328125 35.546875 0.953125 
Q 30.953125 -1.421875 24.3125 -1.421875 
Q 15.921875 -1.421875 10.953125 3.296875 
Q 6 8.015625 6 15.921875 
Q 6 25.140625 12.171875 29.828125 
Q 18.359375 34.515625 30.609375 34.515625 
L 43.21875 34.515625 
L 43.21875 35.40625 
Q 43.21875 41.609375 39.140625 45 
Q 35.0625 48.390625 27.6875 48.390625 
Q 23 48.390625 18.546875 47.265625 
Q 14.109375 46.140625 10.015625 43.890625 
L 10.015625 52.203125 
Q 14.9375 54.109375 19.578125 55.046875 
Q 24.21875 56 28.609375 56 
Q 40.484375 56 46.34375 49.84375 
Q 52.203125 43.703125 52.203125 31.203125 
z
" id="DejaVuSans-97"/>
      <path d="M 9.421875 75.984375 
L 18.40625 75.984375 
L 18.40625 0 
L 9.421875 0 
z
" id="DejaVuSans-108"/>
      <path d="M 31 75.875 
Q 24.46875 64.65625 21.28125 53.65625 
Q 18.109375 42.671875 18.109375 31.390625 
Q 18.109375 20.125 21.3125 9.0625 
Q 24.515625 -2 31 -13.1875 
L 23.1875 -13.1875 
Q 15.875 -1.703125 12.234375 9.375 
Q 8.59375 20.453125 8.59375 31.390625 
Q 8.59375 42.28125 12.203125 53.3125 
Q 15.828125 64.359375 23.1875 75.875 
z
" id="DejaVuSans-40"/>
      <path d="M 8.015625 75.875 
L 15.828125 75.875 
Q 23.140625 64.359375 26.78125 53.3125 
Q 30.421875 42.28125 30.421875 31.390625 
Q 30.421875 20.453125 26.78125 9.375 
Q 23.140625 -1.703125 15.828125 -13.1875 
L 8.015625 -13.1875 
Q 14.5 -2 17.703125 9.0625 
Q 20.90625 20.125 20.90625 31.390625 
Q 20.90625 42.671875 17.703125 53.65625 
Q 14.5 64.65625 8.015625 75.875 
z
" id="DejaVuSans-41"/>
     </defs>
     <g transform="translate(415.76875 74.476562)scale(0.1 -0.1)">
      <use xlink:href="#DejaVuSans-74"/>
      <use x="29.492188" xlink:href="#DejaVuSans-117"/>
      <use x="92.871094" xlink:href="#DejaVuSans-115"/>
      <use x="144.970703" xlink:href="#DejaVuSans-116"/>
      <use x="184.179688" xlink:href="#DejaVuSans-105"/>
      <use x="211.962891" xlink:href="#DejaVuSans-110"/>
      <use x="275.341797" xlink:href="#DejaVuSans-32"/>
      <use x="307.128906" xlink:href="#DejaVuSans-80"/>
      <use x="367.369141" xlink:href="#DejaVuSans-97"/>
      <use x="428.648438" xlink:href="#DejaVuSans-108"/>
      <use x="456.431641" xlink:href="#DejaVuSans-108"/>
      <use x="484.214844" xlink:href="#DejaVuSans-97"/>
      <use x="545.494141" xlink:href="#DejaVuSans-115"/>
      <use x="597.59375" xlink:href="#DejaVuSans-32"/>
      <use x="629.380859" xlink:href="#DejaVuSans-40"/>
      <use x="668.394531" xlink:href="#DejaVuSans-108"/>
      <use x="696.177734" xlink:href="#DejaVuSans-105"/>
      <use x="723.960938" xlink:href="#DejaVuSans-110"/>
      <use x="787.339844" xlink:href="#DejaVuSans-107"/>
      <use x="845.25" xlink:href="#DejaVuSans-115"/>
      <use x="897.349609" xlink:href="#DejaVuSans-41"/>
     </g>
    </g>
    <g id="line2d_101">
     <path d="M 387.76875 85.654687 
L 407.76875 85.654687 
" style="fill:none;stroke:#5454a8;stroke-linecap:square;stroke-width:0.5;"/>
    </g>
    <g id="line2d_102"/>
    <g id="text_24">
     <!-- Justin Pallas (links) -->
     <g transform="translate(415.76875 89.154687)scale(0.1 -0.1)">
      <use xlink:href="#DejaVuSans-74"/>
      <use x="29.492188" xlink:href="#DejaVuSans-117"/>
      <use x="92.871094" xlink:href="#DejaVuSans-115"/>
      <use x="144.970703" xlink:href="#DejaVuSans-116"/>
      <use x="184.179688" xlink:href="#DejaVuSans-105"/>
      <use x="211.962891" xlink:href="#DejaVuSans-110"/>
      <use x="275.341797" xlink:href="#DejaVuSans-32"/>
      <use x="307.128906" xlink:href="#DejaVuSans-80"/>
      <use x="367.369141" xlink:href="#DejaVuSans-97"/>
      <use x="428.648438" xlink:href="#DejaVuSans-108"/>
      <use x="456.431641" xlink:href="#DejaVuSans-108"/>
      <use x="484.214844" xlink:href="#DejaVuSans-97"/>
      <use x="545.494141" xlink:href="#DejaVuSans-115"/>
      <use x="597.59375" xlink:href="#DejaVuSans-32"/>
      <use x="629.380859" xlink:href="#DejaVuSans-40"/>
      <use x="668.394531" xlink:href="#DejaVuSans-108"/>
      <use x="696.177734" xlink:href="#DejaVuSans-105"/>
      <use x="723.960938" xlink:href="#DejaVuSans-110"/>
      <use x="787.339844" xlink:href="#DejaVuSans-107"/>
      <use x="845.25" xlink:href="#DejaVuSans-115"/>
      <use x="897.349609" xlink:href="#DejaVuSans-41"/>
     </g>
    </g>
   </g>
   <g id="line2d_103">
    <path clip-path="url(#pcbce21f9d6)" d="M 91.393665 117.633992 
L 113.478536 173.611051 
L 125.104628 135.721301 
L 144.299982 215.832134 
L 152.394818 175.603466 
L 161.184075 226.417798 
L 166.139765 194.53984 
L 172.850538 241.78493 
L 178.25067 203.947348 
L 184.261252 244.245263 
L 189.200468 208.573204 
L 193.579914 242.980408 
L 197.919618 206.37323 
L 203.346113 255.956883 
L 207.061122 219.591755 
L 211.240955 263.511436 
L 214.6269 226.486989 
L 217.787838 262.142514 
L 220.592335 228.791374 
L 222.859017 257.240312 
L 225.536168 221.999896 
L 229.005918 270.198089 
L 232.011966 226.486955 
L 234.951466 271.308413 
L 238.017286 222.069885 
L 241.694931 284.094386 
L 245.435271 217.635563 
L 248.86723 281.75448 
L 251.979158 220.876466 
L 255.257685 288.547245 
L 258.221891 223.801853 
L 260.820957 282.967193 
L 263.680392 214.795403 
L 267.125502 298.336433 
L 270.38146 220.216889 
L 272.958063 284.388076 
L 275.258211 224.719904 
L 276.980206 270.067155 
L 278.311157 234.580548 
L 280.281747 289.65788 
L 282.567294 226.487213 
L 284.49862 279.449959 
L 286.482153 223.318729 
L 287.927556 264.731816 
L 289.407309 220.963844 
L 291.78918 294.753347 
L 293.634676 236.489745 
L 295.356004 290.192697 
L 297.572863 226.314483 
L 299.832803 293.725845 
L 301.78909 233.919411 
L 303.278388 280.697387 
L 304.944647 226.660201 
L 306.440923 275.624111 
L 308.202843 216.228948 
L 310.111294 279.415723 
L 311.610277 228.674371 
L 313.388338 290.244523 
L 315.089218 230.343044 
L 316.867612 295.111436 
L 318.183994 246.359874 
L 318.847768 270.511049 
L 319.32083 253.370529 
L 320.711842 303.825763 
L 322.332738 243.760409 
L 323.707465 295.284797 
L 325.006329 236.284361 
L 325.994299 274.519629 
L 326.747024 245.579193 
L 327.577815 278.359435 
L 328.269153 250.797503 
L 328.966505 278.91284 
L 329.924037 240.129408 
L 330.534174 261.418445 
L 331.143706 240.035203 
L 331.902209 267.211626 
L 332.618826 241.63765 
L 333.434215 270.772663 
L 334.423103 234.179298 
L 335.393613 270.72483 
L 336.318518 235.634555 
L 337.213484 270.025982 
L 338.07873 235.846406 
L 339.121806 278.256849 
L 339.937754 245.418433 
L 340.840435 279.921736 
L 341.908978 239.539385 
L 342.85502 275.915258 
L 343.523835 250.676283 
L 344.233542 277.735507 
L 345.150521 241.542917 
L 346.415894 293.153726 
L 347.773588 236.217293 
L 348.87348 283.074845 
L 349.978333 235.309263 
L 350.776918 266.283081 
L 351.628672 233.24405 
L 352.635923 272.978877 
L 353.57391 235.963726 
L 354.460097 271.285293 
L 355.260518 238.757505 
L 356.022848 270.527394 
L 356.719129 241.386665 
L 357.456744 272.069445 
L 358.106952 245.083271 
L 358.870959 278.093543 
L 359.607561 245.631625 
L 360.353324 275.764078 
L 361.161616 244.678581 
L 361.990464 276.800037 
L 362.915087 240.082867 
L 363.990514 283.868201 
L 364.762956 252.890255 
L 365.620557 287.720717 
L 366.419028 254.625801 
L 367.25468 289.327686 
L 368.190718 249.391737 
L 369.14377 291.528019 
L 369.797445 263.840177 
L 370.87337 305.69746 
L 372.062026 258.677305 
L 373.250389 306.940867 
L 374.556699 252.336863 
L 375.711824 301.158342 
L 376.665018 260.868611 
L 377.710084 306.376733 
L 378.695868 262.681967 
L 379.862195 310.210206 
L 381.156831 260.409358 
L 382.458332 312.096433 
L 383.634576 264.657246 
L 384.740433 309.373921 
L 385.647542 271.93128 
L 386.771164 319.471106 
L 388.115352 261.289178 
L 389.2114 307.7591 
L 390.57624 256.424979 
L 391.6808 298.818842 
L 392.541624 265.75387 
L 393.834846 317.374965 
L 394.923207 273.547742 
L 395.952051 315.326306 
L 396.99848 272.106336 
L 397.962645 312.090059 
L 399.024421 266.928473 
L 400.25621 311.812791 
L 401.325066 272.935752 
L 402.316753 308.75341 
L 403.289495 273.129727 
L 404.601179 323.651167 
L 405.890146 272.728116 
L 407.269756 328.049094 
L 408.705486 269.332191 
L 409.79076 310.307515 
L 410.866605 274.49736 
L 411.954688 311.420486 
L 413.24625 266.88991 
L 414.681605 317.824722 
L 416.130281 265.233012 
L 417.199815 304.033787 
L 418.302076 263.523112 
L 419.330869 301.826744 
L 420.510929 256.199499 
L 421.455469 285.28415 
L 422.637292 248.325041 
L 424.135374 295.804278 
L 425.447537 254.123419 
L 427.064088 307.292775 
L 428.786811 248.276496 
L 430.206803 298.457066 
L 431.377698 256.493981 
L 432.757013 305.748841 
L 433.639863 279.815878 
L 434.808442 315.442307 
L 436.437126 264.065907 
L 437.676557 303.167532 
L 439.30794 250.312874 
L 440.585904 293.080846 
L 441.789673 251.625594 
L 443.109272 297.658204 
L 444.362891 253.394045 
L 446.021847 306.617659 
L 447.087454 273.735639 
L 447.998052 302.179895 
L 448.607 283.731236 
L 449.734551 319.4884 
L 452.549575 223.335053 
L 453.847562 268.172691 
L 455.2931 216.549055 
L 456.709737 268.140367 
L 458.368944 223.698287 
L 459.659167 258.663194 
L 461.554461 205.472726 
L 463.313389 256.130039 
L 464.441904 223.801671 
L 465.935316 268.170912 
L 467.450462 221.379391 
L 468.909008 267.87639 
L 471.150053 202.066782 
L 472.798629 241.837788 
L 475.103862 183.461943 
L 476.885878 229.986915 
L 478.989642 173.82803 
L 480.971836 227.645617 
L 482.840791 174.668585 
L 484.922186 236.0854 
L 488.601469 150.453466 
L 490.363919 190.232434 
L 492.611295 137.995996 
L 494.639005 186.921727 
L 496.137221 150.395579 
L 497.846117 193.820146 
L 500.235921 129.763436 
L 501.828911 172.751196 
L 503.127404 117.997825 
L 504.280746 168.951154 
L 505.281147 124.361108 
L 506.568577 183.69424 
L 506.568577 183.69424 
" style="fill:none;stroke:#5454a8;stroke-linecap:square;stroke-width:0.5;"/>
   </g>
   <g id="line2d_104">
    <path clip-path="url(#pcbce21f9d6)" d="M 103.374981 145.622522 
L 119.552681 154.666176 
L 135.412414 175.776717 
L 148.474064 195.7178 
L 156.938758 201.010632 
L 163.709413 210.478819 
L 169.582222 218.162385 
L 175.606994 222.866139 
L 181.325816 224.096305 
L 186.778038 226.409234 
L 191.427283 225.776806 
L 195.786188 224.676819 
L 200.689808 231.165056 
L 205.23031 237.774319 
L 209.184827 241.551595 
L 212.956101 244.999213 
L 216.226693 244.314752 
L 219.205299 245.466944 
L 221.735613 243.015843 
L 224.211455 239.620104 
L 227.294328 246.098992 
L 230.526419 248.342522 
L 233.498428 248.897684 
L 236.502555 246.689149 
L 239.882266 253.082136 
L 243.592158 250.864974 
L 247.17403 249.695021 
L 250.441924 251.315473 
L 253.639211 254.711856 
L 256.756782 256.174549 
L 259.53449 253.384523 
L 262.266489 248.881298 
L 265.425902 256.565918 
L 268.773985 259.276661 
L 271.682602 252.302483 
L 274.11837 254.55399 
L 276.124944 247.393529 
L 277.649108 252.323852 
L 279.303963 262.119214 
L 281.434624 258.072546 
L 283.540172 252.968586 
L 285.497997 251.384344 
L 287.208896 244.025272 
L 288.671668 242.84783 
L 290.609218 257.858595 
L 292.718516 265.621546 
L 294.501071 263.341221 
L 296.473939 258.25359 
L 298.712712 260.020164 
L 300.818349 263.822628 
L 302.538029 257.308399 
L 304.116887 253.678794 
L 305.697115 251.142156 
L 307.327888 245.926529 
L 309.164113 247.822335 
L 310.865131 254.045047 
L 312.505423 259.459447 
L 314.244374 260.293784 
L 315.984532 262.72724 
L 317.529155 270.735655 
L 318.516733 258.435462 
L 319.084732 261.940789 
L 320.020079 278.598146 
L 321.527372 273.793086 
L 324.36016 265.784579 
L 325.502202 255.401995 
L 326.371758 260.049411 
L 327.163755 261.969314 
L 327.924408 264.578469 
L 328.618769 264.855171 
L 329.447044 259.521124 
L 330.229825 250.773926 
L 330.839659 250.726824 
L 331.52407 253.623414 
L 332.261511 254.424638 
L 333.027807 256.205156 
L 333.930551 252.47598 
L 334.91018 252.452064 
L 335.85772 253.179693 
L 336.76755 252.830269 
L 337.647555 252.936194 
L 338.602372 257.051627 
L 339.531067 261.837641 
L 340.39067 262.670085 
L 341.376915 259.730561 
L 342.38373 257.727322 
L 343.190293 263.295771 
L 343.879663 264.205895 
L 344.693658 259.639212 
L 345.786305 267.348322 
L 347.098306 264.685509 
L 348.325874 259.646069 
L 349.428268 259.192054 
L 350.378859 250.796172 
L 351.204198 249.763566 
L 352.13426 253.111463 
L 353.106618 254.471301 
L 354.018523 253.624509 
L 354.861547 255.021399 
L 355.642807 254.642449 
L 356.371926 255.95703 
L 357.088989 256.728055 
L 357.782666 258.576358 
L 358.490085 261.588407 
L 359.240309 261.862584 
L 359.981518 260.697852 
L 360.758733 260.22133 
L 361.577368 260.739309 
L 362.454429 258.441452 
L 363.455038 261.975534 
L 364.377889 268.379228 
L 365.193179 270.305486 
L 366.838205 271.976743 
L 367.724394 269.359712 
L 368.669001 270.459878 
L 370.337646 284.768818 
L 371.470431 282.187382 
L 372.65894 282.809086 
L 375.136842 276.747603 
L 376.190178 281.013477 
L 377.189663 283.622672 
L 378.204856 284.52935 
L 379.281663 286.446087 
L 380.512755 285.309782 
L 381.810858 286.252896 
L 383.04913 288.37684 
L 384.18987 287.015584 
L 385.195579 290.652601 
L 386.211795 295.701193 
L 387.446753 290.380142 
L 388.6657 284.524139 
L 389.897423 282.092039 
L 391.13088 277.62191 
L 392.112645 282.286356 
L 393.19147 291.564417 
L 394.381318 295.461353 
L 395.439676 294.437024 
L 396.477383 293.716321 
L 397.482361 292.098198 
L 398.495714 289.509266 
L 399.64325 289.370632 
L 400.792848 292.374271 
L 401.822812 290.844581 
L 402.804955 290.941568 
L 403.948665 298.390447 
L 405.248876 298.189641 
L 406.583632 300.388605 
L 407.991608 298.690642 
L 409.250402 289.819853 
L 410.330921 292.402437 
L 411.412936 292.958923 
L 412.603696 289.155198 
L 413.967913 292.357316 
L 415.410003 291.528867 
L 416.667261 284.6334 
L 417.753295 283.77845 
L 418.81852 282.674928 
L 419.923593 279.013122 
L 420.984925 270.741824 
L 422.049082 266.804596 
L 423.390674 272.06466 
L 424.794786 274.963849 
L 426.260867 280.708097 
L 427.93119 277.784635 
L 429.500707 273.366781 
L 430.794902 277.475523 
L 432.071035 281.121411 
L 433.199946 292.782359 
L 434.226794 297.629092 
L 435.627915 289.754107 
L 437.059813 283.61672 
L 438.497396 276.740203 
L 439.950081 271.69686 
L 441.190591 272.35322 
L 442.452841 274.641899 
L 443.739121 275.526125 
L 445.197692 280.005852 
L 446.556847 290.176649 
L 447.544357 287.957767 
L 448.303243 292.955565 
L 449.173235 301.609818 
L 451.15739 271.411726 
L 453.201828 245.753872 
L 454.574373 242.360873 
L 456.0053 242.344711 
L 457.544666 245.919327 
L 459.017276 241.18074 
L 460.613762 232.06796 
L 462.439909 230.801383 
L 463.88011 239.965855 
L 465.192924 245.986291 
L 466.697329 244.775151 
L 468.18385 244.62789 
L 470.039245 234.971586 
L 471.979598 221.952285 
L 473.961524 212.649866 
L 476.001012 206.724429 
L 477.94632 201.907472 
L 479.988339 200.736823 
L 481.91307 201.157101 
L 483.889868 205.376993 
L 486.788009 193.269433 
L 489.488702 170.34295 
L 491.497376 164.114215 
L 493.633103 162.458861 
L 495.392455 168.658653 
L 496.997317 172.107863 
L 501.037324 151.257316 
L 502.481419 145.374511 
L 503.706648 143.47449 
L 504.782882 146.656131 
L 505.928068 154.027674 
L 505.928068 154.027674 
" style="fill:none;stroke:#5454a8;stroke-linecap:square;"/>
   </g>
   <g id="line2d_105">
    <path clip-path="url(#pcbce21f9d6)" d="M 72 92.865 
L 86.42021 115.503 
L 101.355347 136.755 
L 116.793263 156.159 
L 131.213473 172.56 
L 146.14861 187.575 
L 161.586527 201.435 
L 176.006737 212.985 
L 190.426947 223.149 
L 206.37979 232.851 
L 220.8 240.936 
L 235.22021 247.866 
L 250.155347 254.334 
L 265.593263 259.878 
L 280.013473 264.036 
L 294.94861 267.27 
L 306.215853 268.656 
L 310.386527 269.118 
L 324.806737 268.656 
L 339.226947 266.115 
L 351.009116 268.656 
L 355.17979 270.273 
L 369.6 277.203 
L 384.02021 283.902 
L 395.802379 287.598 
L 398.955347 288.06 
L 414.393263 286.674 
L 428.813473 277.665 
L 440.595643 264.267 
L 443.74861 260.34 
L 459.186527 245.094 
L 466.798022 242.091 
L 473.606737 242.091 
L 480.930378 244.17 
L 488.026947 245.787 
L 495.350588 231.696 
L 503.97979 181.338 
L 511.591285 105.108 
" style="fill:none;stroke:#cc4c4c;stroke-linecap:square;"/>
    <g clip-path="url(#pcbce21f9d6)">
     <use style="fill:#cc4c4c;stroke:#cc4c4c;" x="72" xlink:href="#mc717798413" y="92.865"/>
     <use style="fill:#cc4c4c;stroke:#cc4c4c;" x="86.42021" xlink:href="#mc717798413" y="115.503"/>
     <use style="fill:#cc4c4c;stroke:#cc4c4c;" x="101.355347" xlink:href="#mc717798413" y="136.755"/>
     <use style="fill:#cc4c4c;stroke:#cc4c4c;" x="116.793263" xlink:href="#mc717798413" y="156.159"/>
     <use style="fill:#cc4c4c;stroke:#cc4c4c;" x="131.213473" xlink:href="#mc717798413" y="172.56"/>
     <use style="fill:#cc4c4c;stroke:#cc4c4c;" x="146.14861" xlink:href="#mc717798413" y="187.575"/>
     <use style="fill:#cc4c4c;stroke:#cc4c4c;" x="161.586527" xlink:href="#mc717798413" y="201.435"/>
     <use style="fill:#cc4c4c;stroke:#cc4c4c;" x="176.006737" xlink:href="#mc717798413" y="212.985"/>
     <use style="fill:#cc4c4c;stroke:#cc4c4c;" x="190.426947" xlink:href="#mc717798413" y="223.149"/>
     <use style="fill:#cc4c4c;stroke:#cc4c4c;" x="206.37979" xlink:href="#mc717798413" y="232.851"/>
     <use style="fill:#cc4c4c;stroke:#cc4c4c;" x="220.8" xlink:href="#mc717798413" y="240.936"/>
     <use style="fill:#cc4c4c;stroke:#cc4c4c;" x="235.22021" xlink:href="#mc717798413" y="247.866"/>
     <use style="fill:#cc4c4c;stroke:#cc4c4c;" x="250.155347" xlink:href="#mc717798413" y="254.334"/>
     <use style="fill:#cc4c4c;stroke:#cc4c4c;" x="265.593263" xlink:href="#mc717798413" y="259.878"/>
     <use style="fill:#cc4c4c;stroke:#cc4c4c;" x="280.013473" xlink:href="#mc717798413" y="264.036"/>
     <use style="fill:#cc4c4c;stroke:#cc4c4c;" x="294.94861" xlink:href="#mc717798413" y="267.27"/>
     <use style="fill:#cc4c4c;stroke:#cc4c4c;" x="306.215853" xlink:href="#mc717798413" y="268.656"/>
     <use style="fill:#cc4c4c;stroke:#cc4c4c;" x="310.386527" xlink:href="#mc717798413" y="269.118"/>
     <use style="fill:#cc4c4c;stroke:#cc4c4c;" x="324.806737" xlink:href="#mc717798413" y="268.656"/>
     <use style="fill:#cc4c4c;stroke:#cc4c4c;" x="339.226947" xlink:href="#mc717798413" y="266.115"/>
     <use style="fill:#cc4c4c;stroke:#cc4c4c;" x="351.009116" xlink:href="#mc717798413" y="268.656"/>
     <use style="fill:#cc4c4c;stroke:#cc4c4c;" x="355.17979" xlink:href="#mc717798413" y="270.273"/>
     <use style="fill:#cc4c4c;stroke:#cc4c4c;" x="369.6" xlink:href="#mc717798413" y="277.203"/>
     <use style="fill:#cc4c4c;stroke:#cc4c4c;" x="384.02021" xlink:href="#mc717798413" y="283.902"/>
     <use style="fill:#cc4c4c;stroke:#cc4c4c;" x="395.802379" xlink:href="#mc717798413" y="287.598"/>
     <use style="fill:#cc4c4c;stroke:#cc4c4c;" x="398.955347" xlink:href="#mc717798413" y="288.06"/>
     <use style="fill:#cc4c4c;stroke:#cc4c4c;" x="414.393263" xlink:href="#mc717798413" y="286.674"/>
     <use style="fill:#cc4c4c;stroke:#cc4c4c;" x="428.813473" xlink:href="#mc717798413" y="277.665"/>
     <use style="fill:#cc4c4c;stroke:#cc4c4c;" x="440.595643" xlink:href="#mc717798413" y="264.267"/>
     <use style="fill:#cc4c4c;stroke:#cc4c4c;" x="443.74861" xlink:href="#mc717798413" y="260.34"/>
     <use style="fill:#cc4c4c;stroke:#cc4c4c;" x="459.186527" xlink:href="#mc717798413" y="245.094"/>
     <use style="fill:#cc4c4c;stroke:#cc4c4c;" x="466.798022" xlink:href="#mc717798413" y="242.091"/>
     <use style="fill:#cc4c4c;stroke:#cc4c4c;" x="473.606737" xlink:href="#mc717798413" y="242.091"/>
     <use style="fill:#cc4c4c;stroke:#cc4c4c;" x="480.930378" xlink:href="#mc717798413" y="244.17"/>
     <use style="fill:#cc4c4c;stroke:#cc4c4c;" x="488.026947" xlink:href="#mc717798413" y="245.787"/>
     <use style="fill:#cc4c4c;stroke:#cc4c4c;" x="495.350588" xlink:href="#mc717798413" y="231.696"/>
     <use style="fill:#cc4c4c;stroke:#cc4c4c;" x="503.97979" xlink:href="#mc717798413" y="181.338"/>
     <use style="fill:#cc4c4c;stroke:#cc4c4c;" x="511.591285" xlink:href="#mc717798413" y="105.108"/>
    </g>
   </g>
  </g>
 </g>
 <defs>
  <clipPath id="pcbce21f9d6">
   <rect height="277.2" width="446.4" x="72" y="43.2"/>
  </clipPath>
 </defs>
</svg>
